<?xml version="1.0" encoding="utf-8"?>
<!-- Generator: Adobe Illustrator 14.0.0, SVG Export Plug-In . SVG Version: 6.00 Build 43363)  -->
<!DOCTYPE svg PUBLIC "-//W3C//DTD SVG 1.1//EN" "http://www.w3.org/Graphics/SVG/1.1/DTD/svg11.dtd">
<svg version="1.1" id="レイヤー_1" xmlns="http://www.w3.org/2000/svg" xmlns:xlink="http://www.w3.org/1999/xlink" x="0px"
	 y="0px" width="1600px" height="1100px" viewBox="0 0 1600 1100" enable-background="new 0 0 1600 1100" xml:space="preserve">
<path id="arrow-12-icon_9_" fill="#040000" d="M857.26,904.508l-37.928,54.867h18.239v50.768h39.377v-50.768h18.239L857.26,904.508z
	"/>
<path id="arrow-12-icon_8_" fill="#040000" d="M711.839,866.123l-31.636-21.868v10.515h-29.272v22.706h29.272v10.516
	L711.839,866.123z"/>
<path id="arrow-12-icon_7_" fill="#040000" d="M1167.598,605.218l-21.869,31.637h10.516v29.272h22.705v-29.272h10.517
	L1167.598,605.218z"/>
<g>
	<g>
		<path fill="#040000" d="M869.264,657.431h10.659v3.644h-1.197l-0.145-1.74c-0.072-0.87-0.345-1.033-1.469-1.033h-1.722v8.828
			c0,1.196,0.398,1.306,1.178,1.306h0.907v0.815h-5.765v-0.815h0.906c0.779,0,1.178-0.109,1.178-1.306v-8.828h-1.722
			c-1.124,0-1.396,0.163-1.469,1.033l-0.145,1.74h-1.196V657.431z"/>
		<path fill="#040000" d="M883.385,659.552c0-1.196-0.398-1.305-1.178-1.305h-1.052v-0.816h6.055v0.816h-1.052
			c-0.779,0-1.178,0.108-1.178,1.305v7.577c0,1.196,0.398,1.306,1.178,1.306h1.052v0.815h-6.055v-0.815h1.052
			c0.779,0,1.178-0.109,1.178-1.306V659.552z"/>
		<path fill="#040000" d="M898.105,665.643l-0.145,3.372c-0.979,0.271-2.121,0.525-3.607,0.525c-2.883,0-5.438-1.359-5.438-5.655
			c0-4.352,2.03-6.744,5.638-6.744c1.196,0,2.538,0.254,3.426,0.544v3.336h-1.196c-0.091-2.121-0.218-2.937-2.229-2.937
			c-2.502,0-3.897,1.74-3.897,5.583c0,3.1,1.178,4.931,3.861,4.931c1.957,0,2.229-0.816,2.32-2.955H898.105z"/>
		<path fill="#040000" d="M902.546,659.552c0-1.196-0.398-1.305-1.178-1.305h-1.052v-0.816h5.583v0.816h-0.58
			c-0.779,0-1.178,0.108-1.178,1.305v7.577c0,1.196,0.398,1.306,1.178,1.306h0.58v0.815h-5.583v-0.815h1.052
			c0.779,0,1.178-0.109,1.178-1.306V659.552z M907.024,657.431h4.423v0.816h-0.725c-0.599,0-1.088,0.217-1.686,0.888l-3.19,3.571
			l4.114,4.912c0.526,0.616,0.961,0.816,1.759,0.816v0.815h-4.641v-0.815h0.525c0.453,0,0.599-0.055,0.599-0.272
			c0-0.108-0.146-0.398-0.345-0.652l-3.68-4.459l3.426-3.971c0.163-0.199,0.272-0.38,0.272-0.525c0-0.235-0.146-0.308-0.853-0.308
			V657.431z"/>
		<path fill="#040000" d="M921.218,659.643c0-1.196-0.453-1.27-1.759-1.27h-3.227v4.388h1.776c0.906,0,1.196-0.146,1.196-1.632
			h0.997v4.332h-0.997c0-1.559-0.126-1.758-1.432-1.758h-1.541v4.604h3.897c1.124,0,1.287-0.309,1.287-2.103h1.196v3.045h-10.061
			v-0.815h0.906c0.779,0,1.179-0.109,1.179-1.306v-7.577c0-1.196-0.399-1.305-1.179-1.305h-0.906v-0.816h9.861v2.937h-1.196V659.643
			z"/>
		<path fill="#040000" d="M924.717,657.431h10.659v3.644h-1.197l-0.145-1.74c-0.072-0.87-0.345-1.033-1.469-1.033h-1.722v8.828
			c0,1.196,0.398,1.306,1.178,1.306h0.907v0.815h-5.765v-0.815h0.906c0.779,0,1.178-0.109,1.178-1.306v-8.828h-1.722
			c-1.124,0-1.396,0.163-1.469,1.033l-0.145,1.74h-1.196V657.431z"/>
		<path fill="#040000" d="M947.685,657.141c3.317,0,5.348,1.994,5.348,6.2c0,4.061-2.066,6.199-5.348,6.199
			s-5.348-2.139-5.348-6.199C942.337,659.135,944.368,657.141,947.685,657.141z M947.685,668.598c2.229,0,3.607-1.486,3.607-5.257
			s-1.378-5.257-3.607-5.257s-3.607,1.486-3.607,5.257S945.456,668.598,947.685,668.598z"/>
		<path fill="#040000" d="M963.202,659.643c0-1.196-0.453-1.27-1.758-1.27h-2.883v4.388h1.776c0.906,0,1.196-0.146,1.196-1.632
			h0.997v4.332h-0.997c0-1.559-0.126-1.758-1.432-1.758h-1.541v3.426c0,1.196,0.399,1.306,1.179,1.306h1.051v0.815h-6.054v-0.815
			h1.051c0.779,0,1.179-0.109,1.179-1.306v-7.577c0-1.196-0.399-1.305-1.179-1.305h-1.051v-0.816h9.661v2.937h-1.196V659.643z"/>
		<path fill="#040000" d="M974.278,659.643c0-1.196-0.453-1.27-1.758-1.27h-2.883v4.388h1.776c0.906,0,1.196-0.146,1.196-1.632
			h0.997v4.332h-0.997c0-1.559-0.126-1.758-1.432-1.758h-1.541v3.426c0,1.196,0.399,1.306,1.179,1.306h1.051v0.815h-6.054v-0.815
			h1.051c0.779,0,1.179-0.109,1.179-1.306v-7.577c0-1.196-0.399-1.305-1.179-1.305h-1.051v-0.816h9.661v2.937h-1.196V659.643z"/>
		<path fill="#040000" d="M979.119,659.552c0-1.196-0.399-1.305-1.179-1.305h-1.051v-0.816h6.054v0.816h-1.051
			c-0.779,0-1.179,0.108-1.179,1.305v7.577c0,1.196,0.399,1.306,1.179,1.306h1.051v0.815h-6.054v-0.815h1.051
			c0.779,0,1.179-0.109,1.179-1.306V659.552z"/>
		<path fill="#040000" d="M993.838,665.643l-0.146,3.372c-0.979,0.271-2.121,0.525-3.607,0.525c-2.882,0-5.438-1.359-5.438-5.655
			c0-4.352,2.03-6.744,5.638-6.744c1.196,0,2.538,0.254,3.427,0.544v3.336h-1.196c-0.091-2.121-0.218-2.937-2.23-2.937
			c-2.501,0-3.897,1.74-3.897,5.583c0,3.1,1.179,4.931,3.861,4.931c1.958,0,2.229-0.816,2.32-2.955H993.838z"/>
		<path fill="#040000" d="M1004.86,659.643c0-1.196-0.453-1.27-1.759-1.27h-3.227v4.388h1.776c0.906,0,1.196-0.146,1.196-1.632
			h0.997v4.332h-0.997c0-1.559-0.126-1.758-1.432-1.758h-1.541v4.604h3.897c1.124,0,1.287-0.309,1.287-2.103h1.196v3.045h-10.061
			v-0.815h0.906c0.779,0,1.179-0.109,1.179-1.306v-7.577c0-1.196-0.399-1.305-1.179-1.305h-0.906v-0.816h9.861v2.937h-1.196V659.643
			z"/>
	</g>
</g>
<g>
	<path fill="#7F7F7F" d="M852.077,485.329c0-1.359-0.453-1.483-1.339-1.483h-1.194v-0.988h6.921c2.225,0,4.059,1.03,4.059,3.708
		c0,2.472-1.607,3.955-5.336,3.955h-1.298v3.357c0,1.359,0.453,1.483,1.34,1.483h1.4v0.927h-7.086v-0.927h1.194
		c0.886,0,1.339-0.124,1.339-1.483V485.329z M853.889,489.449h1.071c2.781,0,3.667-1.133,3.667-2.863
		c0-1.957-1.071-2.657-3.214-2.657h-1.524V489.449z"/>
	<path fill="#7F7F7F" d="M867.115,486.276c2.472,0,4.635,1.483,4.635,5.13c0,3.646-2.163,5.129-4.635,5.129
		s-4.635-1.483-4.635-5.129C862.48,487.76,864.643,486.276,867.115,486.276z M867.115,487.266c-1.896,0-2.74,1.236-2.74,4.141
		s0.845,4.141,2.74,4.141c1.895,0,2.739-1.236,2.739-4.141S869.009,487.266,867.115,487.266z"/>
	<path fill="#7F7F7F" d="M879.639,495.423h0.906c0.618,0,1.03-0.227,1.03-1.236v-4.058c0-1.978-0.639-2.781-1.957-2.781
		c-1.874,0-2.637,1.545-2.637,3.338v3.543c0,0.721,0.33,1.194,1.359,1.194h0.412v0.865h-5.438v-0.865h0.577
		c1.03,0,1.359-0.474,1.359-1.194v-5.769c0-0.535-0.144-1.009-0.927-1.009h-1.01v-0.927c0.804,0,2.575-0.062,3.585-0.165v1.524
		h0.062c0.721-1.236,1.957-1.607,3.151-1.607c2.04,0,3.193,0.948,3.193,3.069v4.903c0,0.927,0.309,1.174,0.947,1.174h0.7v0.865
		h-5.314V495.423z"/>
	<path fill="#7F7F7F" d="M894.141,494.599H894.1c-0.659,1.36-2.08,1.937-3.439,1.937c-1.916,0-3.914-1.03-3.914-4.82
		c0-3.604,1.812-5.438,4.243-5.438c1.318,0,2.308,0.516,2.945,1.566h0.042v-4.409c0-0.535-0.145-1.009-0.928-1.009h-1.009v-0.927
		c0.804,0,2.575-0.062,3.667-0.165v12.4c0,1.545,0.391,1.689,1.215,1.689h0.721v0.865h-3.502V494.599z M891.361,487.348
		c-1.73,0-2.72,1.628-2.72,4.038c0,2.884,0.907,4.078,2.72,4.078c1.71,0,2.698-1.606,2.698-4.017
		C894.059,488.563,893.153,487.348,891.361,487.348z"/>
</g>
<g>
	<path fill="#7F7F7F" d="M1151.033,462.019c0-1.051-0.371-1.277-1.318-1.277h-1.298v-0.927h6.468v0.927h-1.07
		c-0.722,0-1.051,0.268-1.051,1.318v3.049c-1.545,0.515-3.049,0.782-4.759,0.782c-3.275,0-6.18-1.545-6.18-6.447
		c0-5.438,2.781-7.643,7.065-7.643c1.174,0,2.472,0.186,3.873,0.495v3.625h-1.442l-0.123-1.668
		c-0.062-0.701-0.475-1.381-2.452-1.381c-3.09,0-4.943,1.771-4.943,6.283c0,2.863,1.03,5.665,4.47,5.665
		c0.824,0,1.73-0.186,2.761-0.495V462.019z"/>
	<path fill="#7F7F7F" d="M1163.001,463.872h-0.042c-0.535,0.948-1.359,1.937-3.357,1.937c-1.751,0-3.008-1.051-3.008-2.739
		c0-1.896,1.236-3.316,4.141-3.316h2.143v-1.092c0-1.463-0.741-2.184-1.978-2.184c-1.833,0-2.163,0.865-2.204,2.204h-1.812
		c0.041-1.339,0.474-3.132,4.12-3.132c2.225,0,3.604,0.865,3.604,2.658c0,1.503-0.041,3.027-0.041,4.696
		c0,1.71,0.165,1.792,1.586,1.792v0.865h-3.151V463.872z M1160.22,464.614c1.092,0,1.998-0.763,2.286-1.483
		c0.289-0.7,0.371-1.298,0.371-2.451h-1.318c-2.225,0-3.151,0.803-3.151,2.184C1158.408,463.996,1159.19,464.614,1160.22,464.614z"
		/>
	<path fill="#7F7F7F" d="M1167.513,450.771c0.803,0,2.574-0.062,3.666-0.165v12.896c0,0.721,0.33,1.194,1.359,1.194h0.412v0.865
		h-5.438v-0.865h0.576c1.03,0,1.359-0.474,1.359-1.194v-10.795c0-0.535-0.144-1.009-0.927-1.009h-1.009V450.771z"/>
	<path fill="#7F7F7F" d="M1174.393,450.771c0.804,0,2.575-0.062,3.667-0.165v12.896c0,0.721,0.329,1.194,1.359,1.194h0.412v0.865
		h-5.438v-0.865h0.577c1.029,0,1.359-0.474,1.359-1.194v-10.795c0-0.535-0.145-1.009-0.927-1.009h-1.01V450.771z"/>
	<path fill="#7F7F7F" d="M1189.864,462.78c-0.31,2.102-1.71,3.028-3.832,3.028c-2.843,0-4.388-1.565-4.388-5.129
		c0-3.357,1.689-5.13,4.449-5.13c2.143,0,3.935,1.175,3.935,4.018v1.174h-6.571c0.021,2.843,0.969,4.079,2.596,4.079
		c1.175,0,2.122-0.639,2.369-2.04H1189.864z M1188.298,459.753c-0.021-2.04-0.804-3.214-2.267-3.214
		c-1.606,0-2.492,1.236-2.575,3.214H1188.298z"/>
	<path fill="#7F7F7F" d="M1191.574,455.798c0.803,0,2.574-0.062,3.501-0.165v2.08h0.042c0.741-1.504,1.668-2.08,3.275-2.08
		c0.556,0,1.092,0.041,1.462,0.082v2.637h-1.071c-0.185-0.927-0.617-1.441-1.359-1.441c-0.762,0-2.184,0.741-2.184,3.192v3.399
		c0,0.721,0.33,1.194,1.359,1.194h0.824v0.865h-5.85v-0.865h0.576c1.03,0,1.359-0.474,1.359-1.194v-5.769
		c0-0.535-0.144-1.009-0.927-1.009h-1.009V455.798z"/>
	<path fill="#7F7F7F" d="M1206.672,455.798h4.532v0.864c-1.112,0-1.401,0.475-1.896,1.689l-3.522,8.61
		c-0.453,1.112-0.515,1.442-0.515,1.628c0,0.35,0.288,0.535,0.927,0.535h0.762v0.865h-4.984v-0.865c1.441,0,1.73-0.144,2.204-1.38
		l0.782-2.019l-3.049-7.663c-0.268-0.68-0.638-1.298-1.668-1.401v-0.864h4.861v0.864h-0.927c-0.557,0-0.804,0.124-0.804,0.454
		c0,0.227,0.145,0.597,0.371,1.174l2.08,5.355l2.287-5.582c0.186-0.433,0.309-0.763,0.309-0.947c0-0.392-0.329-0.454-0.988-0.454
		h-0.763V455.798z"/>
	<path fill="#7F7F7F" d="M1219.753,452.749c1.771-0.083,2.945-0.33,4.1-0.742v11.371c0,1.01,0.288,1.257,1.276,1.257h0.804v0.927
		h-6.18v-0.927h0.865c0.988,0,1.339-0.31,1.339-1.545v-8.055c0-0.886-0.309-1.298-1.216-1.298h-0.988V452.749z"/>
</g>
<g>
	<path fill="#7F7F7F" d="M940.737,223.735c0-1.051-0.371-1.277-1.318-1.277h-1.298v-0.927h6.468v0.927h-1.07
		c-0.722,0-1.051,0.268-1.051,1.318v3.049c-1.545,0.515-3.049,0.782-4.759,0.782c-3.275,0-6.18-1.545-6.18-6.447
		c0-5.438,2.781-7.643,7.065-7.643c1.174,0,2.472,0.186,3.873,0.495v3.625h-1.442l-0.123-1.668
		c-0.062-0.701-0.475-1.381-2.452-1.381c-3.09,0-4.943,1.771-4.943,6.283c0,2.863,1.03,5.665,4.47,5.665
		c0.824,0,1.73-0.186,2.761-0.495V223.735z"/>
	<path fill="#7F7F7F" d="M952.706,225.589h-0.042c-0.535,0.948-1.359,1.937-3.357,1.937c-1.751,0-3.008-1.051-3.008-2.739
		c0-1.896,1.236-3.316,4.141-3.316h2.143v-1.092c0-1.463-0.741-2.184-1.978-2.184c-1.833,0-2.163,0.865-2.204,2.204h-1.812
		c0.041-1.339,0.474-3.132,4.12-3.132c2.225,0,3.604,0.865,3.604,2.658c0,1.503-0.041,3.027-0.041,4.696
		c0,1.71,0.165,1.792,1.586,1.792v0.865h-3.151V225.589z M949.924,226.331c1.092,0,1.998-0.763,2.286-1.483
		c0.289-0.7,0.371-1.298,0.371-2.451h-1.318c-2.225,0-3.151,0.803-3.151,2.184C948.112,225.713,948.894,226.331,949.924,226.331z"/>
	<path fill="#7F7F7F" d="M957.217,212.488c0.803,0,2.574-0.062,3.666-0.165v12.896c0,0.721,0.33,1.194,1.359,1.194h0.412v0.865
		h-5.438v-0.865h0.576c1.03,0,1.359-0.474,1.359-1.194v-10.795c0-0.535-0.144-1.009-0.927-1.009h-1.009V212.488z"/>
	<path fill="#7F7F7F" d="M964.097,212.488c0.804,0,2.575-0.062,3.667-0.165v12.896c0,0.721,0.329,1.194,1.359,1.194h0.412v0.865
		h-5.438v-0.865h0.577c1.029,0,1.359-0.474,1.359-1.194v-10.795c0-0.535-0.145-1.009-0.927-1.009h-1.01V212.488z"/>
	<path fill="#7F7F7F" d="M979.568,224.497c-0.31,2.102-1.71,3.028-3.832,3.028c-2.843,0-4.388-1.565-4.388-5.129
		c0-3.357,1.689-5.13,4.449-5.13c2.143,0,3.935,1.175,3.935,4.018v1.174h-6.571c0.021,2.843,0.969,4.079,2.596,4.079
		c1.175,0,2.122-0.639,2.369-2.04H979.568z M978.002,221.47c-0.021-2.04-0.804-3.214-2.267-3.214c-1.606,0-2.492,1.236-2.575,3.214
		H978.002z"/>
	<path fill="#7F7F7F" d="M981.278,217.515c0.803,0,2.574-0.062,3.501-0.165v2.08h0.042c0.741-1.504,1.668-2.08,3.275-2.08
		c0.556,0,1.092,0.041,1.462,0.082v2.637h-1.071c-0.185-0.927-0.617-1.441-1.359-1.441c-0.762,0-2.184,0.741-2.184,3.192v3.399
		c0,0.721,0.33,1.194,1.359,1.194h0.824v0.865h-5.85v-0.865h0.576c1.03,0,1.359-0.474,1.359-1.194v-5.769
		c0-0.535-0.144-1.009-0.927-1.009h-1.009V217.515z"/>
	<path fill="#7F7F7F" d="M996.376,217.515h4.532v0.864c-1.112,0-1.401,0.475-1.896,1.689l-3.522,8.61
		c-0.453,1.112-0.515,1.442-0.515,1.628c0,0.35,0.288,0.535,0.927,0.535h0.762v0.865h-4.984v-0.865c1.441,0,1.73-0.144,2.204-1.38
		l0.782-2.019l-3.049-7.663c-0.268-0.68-0.638-1.298-1.668-1.401v-0.864h4.861v0.864h-0.927c-0.557,0-0.804,0.124-0.804,0.454
		c0,0.227,0.145,0.597,0.371,1.174l2.08,5.355l2.287-5.582c0.186-0.433,0.309-0.763,0.309-0.947c0-0.392-0.329-0.454-0.988-0.454
		h-0.763V217.515z"/>
	<path fill="#7F7F7F" d="M1008.057,225.713c6.406-6.057,6.818-7.086,6.818-8.837c0-1.524-0.928-2.287-2.328-2.287
		c-1.504,0-2.39,0.969-2.431,3.193h-1.812c0.041-2.308,0.721-4.265,4.325-4.265c2.863,0,4.141,1.381,4.141,3.399
		c0,1.854-0.639,2.986-6.715,8.714h4.717c0.824,0,0.989-0.31,1.051-1.236h1.071v2.884h-8.837V225.713z"/>
</g>
<g>
	<path fill="#7F7F7F" d="M444.321,211.114c0-1.051-0.371-1.277-1.318-1.277h-1.298v-0.927h6.468v0.927h-1.071
		c-0.721,0-1.05,0.268-1.05,1.318v3.049c-1.545,0.515-3.049,0.782-4.758,0.782c-3.275,0-6.18-1.545-6.18-6.447
		c0-5.438,2.781-7.643,7.066-7.643c1.174,0,2.472,0.186,3.873,0.495v3.625h-1.442l-0.124-1.668
		c-0.062-0.701-0.474-1.381-2.452-1.381c-3.09,0-4.944,1.771-4.944,6.283c0,2.863,1.03,5.665,4.47,5.665
		c0.824,0,1.73-0.186,2.76-0.495V211.114z"/>
	<path fill="#7F7F7F" d="M456.29,212.968h-0.042c-0.535,0.948-1.359,1.937-3.357,1.937c-1.751,0-3.008-1.051-3.008-2.739
		c0-1.896,1.236-3.316,4.141-3.316h2.143v-1.092c0-1.463-0.742-2.184-1.978-2.184c-1.833,0-2.163,0.865-2.204,2.204h-1.813
		c0.041-1.339,0.474-3.132,4.12-3.132c2.225,0,3.604,0.865,3.604,2.658c0,1.503-0.041,3.027-0.041,4.696
		c0,1.71,0.165,1.792,1.586,1.792v0.865h-3.151V212.968z M453.508,213.71c1.092,0,1.999-0.763,2.287-1.483
		c0.289-0.7,0.371-1.298,0.371-2.451h-1.318c-2.225,0-3.152,0.803-3.152,2.184C451.696,213.092,452.479,213.71,453.508,213.71z"/>
	<path fill="#7F7F7F" d="M460.801,199.867c0.803,0,2.575-0.062,3.667-0.165v12.896c0,0.721,0.33,1.194,1.359,1.194h0.412v0.865
		h-5.438v-0.865h0.577c1.03,0,1.359-0.474,1.359-1.194v-10.795c0-0.535-0.144-1.009-0.927-1.009h-1.009V199.867z"/>
	<path fill="#7F7F7F" d="M467.682,199.867c0.803,0,2.575-0.062,3.667-0.165v12.896c0,0.721,0.33,1.194,1.359,1.194h0.412v0.865
		h-5.438v-0.865h0.577c1.03,0,1.359-0.474,1.359-1.194v-10.795c0-0.535-0.144-1.009-0.927-1.009h-1.009V199.867z"/>
	<path fill="#7F7F7F" d="M483.152,211.876c-0.309,2.102-1.71,3.028-3.832,3.028c-2.843,0-4.388-1.565-4.388-5.129
		c0-3.357,1.689-5.13,4.449-5.13c2.143,0,3.935,1.175,3.935,4.018v1.174h-6.571c0.021,2.843,0.968,4.079,2.596,4.079
		c1.174,0,2.122-0.639,2.369-2.04H483.152z M481.586,208.849c-0.021-2.04-0.803-3.214-2.266-3.214c-1.607,0-2.493,1.236-2.575,3.214
		H481.586z"/>
	<path fill="#7F7F7F" d="M484.862,204.894c0.803,0,2.575-0.062,3.501-0.165v2.08h0.042c0.742-1.504,1.668-2.08,3.275-2.08
		c0.556,0,1.092,0.041,1.462,0.082v2.637h-1.071c-0.186-0.927-0.618-1.441-1.359-1.441c-0.762,0-2.184,0.741-2.184,3.192v3.399
		c0,0.721,0.33,1.194,1.359,1.194h0.824v0.865h-5.85v-0.865h0.577c1.03,0,1.359-0.474,1.359-1.194v-5.769
		c0-0.535-0.144-1.009-0.927-1.009h-1.009V204.894z"/>
	<path fill="#7F7F7F" d="M499.961,204.894h4.532v0.864c-1.112,0-1.401,0.475-1.895,1.689l-3.522,8.61
		c-0.453,1.112-0.515,1.442-0.515,1.628c0,0.35,0.289,0.535,0.927,0.535h0.762v0.865h-4.985v-0.865c1.442,0,1.73-0.144,2.204-1.38
		l0.783-2.019l-3.049-7.663c-0.268-0.68-0.638-1.298-1.668-1.401v-0.864h4.862v0.864h-0.927c-0.556,0-0.803,0.124-0.803,0.454
		c0,0.227,0.144,0.597,0.371,1.174l2.081,5.355l2.287-5.582c0.186-0.433,0.309-0.763,0.309-0.947c0-0.392-0.33-0.454-0.989-0.454
		h-0.762V204.894z"/>
	<path fill="#7F7F7F" d="M514.463,207.262h0.495c2.431,0,3.234-0.865,3.234-2.863c0-1.606-0.927-2.431-2.286-2.431
		c-1.627,0-2.184,1.298-2.205,2.616h-1.812c0.041-2.143,1.462-3.688,4.017-3.688c2.369,0,4.182,1.092,4.182,3.749
		c0,1.628-1.071,2.699-2.616,3.173v0.041c2.039,0.288,3.007,1.38,3.007,3.316c0,2.41-1.689,3.811-4.594,3.811
		c-3.234,0-4.326-1.318-4.388-3.872h1.813c0.062,1.647,0.721,2.802,2.451,2.802c1.916,0,2.822-1.154,2.822-2.761
		c0-2.163-1.359-2.698-3.543-2.698h-0.577V207.262z"/>
</g>
<g>
	<path fill="#7F7F7F" d="M100.872,430.559c0-1.051-0.371-1.277-1.318-1.277h-1.298v-0.927h6.468v0.927h-1.071
		c-0.721,0-1.051,0.268-1.051,1.318v3.049c-1.545,0.515-3.049,0.783-4.758,0.783c-3.275,0-6.18-1.546-6.18-6.448
		c0-5.438,2.781-7.643,7.066-7.643c1.174,0,2.472,0.186,3.873,0.495v3.625h-1.442l-0.124-1.668
		c-0.062-0.701-0.474-1.381-2.452-1.381c-3.09,0-4.944,1.771-4.944,6.283c0,2.863,1.03,5.665,4.47,5.665
		c0.824,0,1.73-0.186,2.76-0.495V430.559z"/>
	<path fill="#7F7F7F" d="M112.841,432.412h-0.042c-0.536,0.948-1.359,1.937-3.357,1.937c-1.751,0-3.008-1.051-3.008-2.739
		c0-1.896,1.236-3.316,4.141-3.316h2.143v-1.092c0-1.463-0.742-2.184-1.978-2.184c-1.833,0-2.163,0.865-2.204,2.204h-1.813
		c0.041-1.339,0.474-3.132,4.12-3.132c2.225,0,3.604,0.865,3.604,2.658c0,1.503-0.041,3.027-0.041,4.696
		c0,1.71,0.165,1.792,1.586,1.792v0.865h-3.151V432.412z M110.06,433.154c1.092,0,1.999-0.763,2.287-1.483
		c0.289-0.7,0.371-1.298,0.371-2.451h-1.318c-2.225,0-3.152,0.803-3.152,2.184C108.247,432.536,109.03,433.154,110.06,433.154z"/>
	<path fill="#7F7F7F" d="M117.353,419.312c0.803,0,2.575-0.062,3.667-0.165v12.896c0,0.721,0.33,1.194,1.359,1.194h0.412v0.865
		h-5.438v-0.865h0.577c1.03,0,1.359-0.474,1.359-1.194v-10.794c0-0.536-0.144-1.01-0.927-1.01h-1.009V419.312z"/>
	<path fill="#7F7F7F" d="M124.233,419.312c0.803,0,2.575-0.062,3.667-0.165v12.896c0,0.721,0.33,1.194,1.359,1.194h0.412v0.865
		h-5.438v-0.865h0.577c1.03,0,1.359-0.474,1.359-1.194v-10.794c0-0.536-0.144-1.01-0.927-1.01h-1.009V419.312z"/>
	<path fill="#7F7F7F" d="M139.703,431.32c-0.309,2.102-1.71,3.028-3.832,3.028c-2.843,0-4.388-1.565-4.388-5.129
		c0-3.358,1.689-5.13,4.449-5.13c2.143,0,3.935,1.175,3.935,4.018v1.174h-6.571c0.021,2.843,0.968,4.079,2.596,4.079
		c1.174,0,2.122-0.639,2.369-2.04H139.703z M138.138,428.293c-0.021-2.04-0.804-3.214-2.266-3.214c-1.607,0-2.493,1.236-2.575,3.214
		H138.138z"/>
	<path fill="#7F7F7F" d="M141.413,424.338c0.803,0,2.575-0.062,3.501-0.165v2.08h0.042c0.742-1.504,1.668-2.08,3.275-2.08
		c0.556,0,1.092,0.041,1.462,0.082v2.637h-1.071c-0.185-0.927-0.618-1.441-1.359-1.441c-0.762,0-2.184,0.741-2.184,3.192v3.399
		c0,0.721,0.33,1.194,1.359,1.194h0.824v0.865h-5.85v-0.865h0.577c1.03,0,1.359-0.474,1.359-1.194v-5.769
		c0-0.535-0.144-1.009-0.927-1.009h-1.009V424.338z"/>
	<path fill="#7F7F7F" d="M156.512,424.338h4.532v0.865c-1.112,0-1.401,0.474-1.895,1.688l-3.522,8.61
		c-0.453,1.112-0.515,1.442-0.515,1.628c0,0.35,0.289,0.535,0.927,0.535h0.762v0.865h-4.985v-0.865c1.442,0,1.73-0.144,2.204-1.38
		l0.783-2.019l-3.049-7.663c-0.268-0.68-0.638-1.298-1.668-1.4v-0.865h4.861v0.865h-0.927c-0.556,0-0.803,0.123-0.803,0.453
		c0,0.227,0.144,0.597,0.371,1.174l2.081,5.355l2.287-5.582c0.186-0.433,0.309-0.763,0.309-0.947c0-0.392-0.33-0.453-0.989-0.453
		h-0.762V424.338z"/>
	<path fill="#7F7F7F" d="M167.286,429.014l6.098-8.343h1.978v8.425h2.843v1.195h-2.843v1.978c0,0.7,0.412,0.906,1.277,0.906h0.824
		v0.927h-5.933v-0.927h0.824c0.865,0,1.277-0.206,1.277-0.906v-1.978h-6.345V429.014z M173.63,422.566h-0.041l-4.738,6.529h4.779
		V422.566z"/>
</g>
<g>
	<path fill="#7F7F7F" d="M821.427,790.099h6.941v0.927h-1.421c-0.886,0-1.339,0.124-1.339,1.483v9.949h4.078
		c1.153,0,1.401-0.206,1.401-2.678v-0.659h1.359v4.408h-11.021v-0.927h1.029c0.886,0,1.339-0.124,1.339-1.483v-8.61
		c0-1.359-0.453-1.483-1.339-1.483h-1.029V790.099z"/>
	<path fill="#7F7F7F" d="M838.999,793.518c2.472,0,4.635,1.483,4.635,5.13c0,3.646-2.163,5.129-4.635,5.129
		s-4.635-1.483-4.635-5.129C834.364,795.001,836.527,793.518,838.999,793.518z M838.999,794.507c-1.896,0-2.74,1.236-2.74,4.141
		s0.845,4.141,2.74,4.141c1.895,0,2.739-1.236,2.739-4.141S840.893,794.507,838.999,794.507z"/>
	<path fill="#7F7F7F" d="M845.199,788.739c0.804,0,2.575-0.062,3.667-0.165v6.777h0.041c0.577-1.236,1.669-1.834,3.152-1.834
		c2.327,0,3.935,1.689,3.935,4.8c0,4.471-2.308,5.459-4.203,5.459c-1.482,0-2.389-0.577-3.09-1.668h-0.041v1.421h-3.461v-0.865
		h0.722c0.823,0,1.215-0.145,1.215-1.689v-10.299c0-0.536-0.144-1.01-0.927-1.01h-1.01V788.739z M851.523,794.589
		c-1.73,0-2.657,1.381-2.657,4.059c0,2.698,0.927,4.058,2.657,4.058c1.751,0,2.657-1.359,2.657-4.058
		C854.18,795.97,853.274,794.589,851.523,794.589z"/>
	<path fill="#7F7F7F" d="M857.786,788.739c0.804,0,2.575-0.062,3.667-0.165v6.777h0.041c0.576-1.236,1.668-1.834,3.151-1.834
		c2.328,0,3.935,1.689,3.935,4.8c0,4.471-2.307,5.459-4.202,5.459c-1.483,0-2.39-0.577-3.09-1.668h-0.041v1.421h-3.461v-0.865h0.721
		c0.824,0,1.216-0.145,1.216-1.689v-10.299c0-0.536-0.145-1.01-0.927-1.01h-1.01V788.739z M864.11,794.589
		c-1.73,0-2.657,1.381-2.657,4.059c0,2.698,0.927,4.058,2.657,4.058c1.751,0,2.657-1.359,2.657-4.058
		C866.767,795.97,865.861,794.589,864.11,794.589z"/>
	<path fill="#7F7F7F" d="M876.573,793.766h4.531v0.865c-1.112,0-1.4,0.474-1.895,1.688l-3.522,8.61
		c-0.453,1.112-0.516,1.442-0.516,1.628c0,0.35,0.289,0.535,0.927,0.535h0.763v0.865h-4.985v-0.865c1.442,0,1.73-0.144,2.204-1.38
		l0.783-2.019l-3.049-7.663c-0.268-0.68-0.639-1.298-1.669-1.4v-0.865h4.862v0.865h-0.928c-0.556,0-0.803,0.123-0.803,0.453
		c0,0.227,0.144,0.597,0.37,1.174l2.081,5.355l2.286-5.582c0.186-0.433,0.31-0.763,0.31-0.947c0-0.392-0.33-0.453-0.989-0.453
		h-0.762V793.766z"/>
</g>
<g>
	<path fill="#7F7F7F" d="M407.163,829.896l-0.165,3.832c-1.112,0.309-2.41,0.598-4.099,0.598c-3.275,0-6.18-1.546-6.18-6.428
		c0-4.943,2.307-7.663,6.407-7.663c1.359,0,2.884,0.289,3.893,0.618v3.79h-1.359c-0.103-2.41-0.248-3.337-2.534-3.337
		c-2.843,0-4.429,1.978-4.429,6.345c0,3.522,1.339,5.604,4.388,5.604c2.225,0,2.534-0.928,2.637-3.358H407.163z"/>
	<path fill="#7F7F7F" d="M416.763,832.307h-0.042c-0.535,0.948-1.359,1.937-3.357,1.937c-1.751,0-3.008-1.051-3.008-2.739
		c0-1.896,1.236-3.316,4.141-3.316h2.143v-1.092c0-1.463-0.742-2.184-1.978-2.184c-1.833,0-2.163,0.865-2.204,2.204h-1.813
		c0.041-1.339,0.474-3.132,4.12-3.132c2.225,0,3.604,0.865,3.604,2.658c0,1.503-0.041,3.027-0.041,4.696
		c0,1.71,0.165,1.792,1.586,1.792v0.865h-3.151V832.307z M413.982,833.049c1.092,0,1.999-0.763,2.287-1.483
		c0.289-0.7,0.371-1.298,0.371-2.451h-1.318c-2.225,0-3.152,0.803-3.152,2.184C412.169,832.431,412.952,833.049,413.982,833.049z"/>
	<path fill="#7F7F7F" d="M421.027,824.232h1.937v-1.01c0-3.028,1.545-4.017,3.996-4.017c0.68,0,1.607,0.144,2.307,0.309v2.719
		h-1.195c-0.041-1.4-0.309-2.162-1.318-2.162c-1.174,0-2.06,0.782-2.06,3.007v1.154h2.595v0.927h-2.595v6.427
		c0,1.298,0.309,1.545,1.298,1.545h1.009v0.865h-5.974v-0.865h0.783c0.762,0,1.154-0.247,1.154-0.927v-7.045h-1.937V824.232z"/>
	<path fill="#7F7F7F" d="M437.878,831.215c-0.309,2.102-1.71,3.028-3.832,3.028c-2.843,0-4.388-1.565-4.388-5.129
		c0-3.358,1.689-5.13,4.449-5.13c2.143,0,3.935,1.175,3.935,4.018v1.174h-6.571c0.021,2.843,0.968,4.079,2.596,4.079
		c1.174,0,2.122-0.639,2.369-2.04H437.878z M436.312,828.188c-0.021-2.04-0.804-3.214-2.266-3.214c-1.607,0-2.493,1.236-2.575,3.214
		H436.312z"/>
</g>
<g>
	<g>
		<path fill="#040000" d="M740.107,677.71c0-1.196-0.399-1.305-1.178-1.305h-1.052v-0.816h6.055v0.816h-1.051
			c-0.779,0-1.178,0.108-1.178,1.305v7.577c0,1.196,0.399,1.306,1.178,1.306h1.051v0.815h-6.055v-0.815h1.052
			c0.779,0,1.178-0.109,1.178-1.306V677.71z"/>
		<path fill="#040000" d="M752.76,675.589h5.185v0.816h-0.961c-0.67,0-0.942,0.326-0.942,1.214v9.789h-1.921l-5.62-10.623h-0.036
			v8.502c0,1.196,0.398,1.306,1.178,1.306h0.906v0.815h-5.511v-0.815h1.051c0.78,0,1.179-0.109,1.179-1.306v-7.577
			c0-1.196-0.399-1.305-1.179-1.305h-1.051v-0.816h4.55c1.541,2.937,3.789,6.997,5.221,10.297h0.036v-8.267
			c0-0.924-0.218-1.214-1.215-1.214h-0.87V675.589z"/>
		<path fill="#040000" d="M767.516,677.801c0-1.196-0.453-1.27-1.758-1.27h-2.882v4.388h1.776c0.906,0,1.196-0.146,1.196-1.632
			h0.997v4.332h-0.997c0-1.559-0.126-1.758-1.432-1.758h-1.541v3.426c0,1.196,0.399,1.306,1.178,1.306h1.051v0.815h-6.054v-0.815
			h1.051c0.779,0,1.178-0.109,1.178-1.306v-7.577c0-1.196-0.399-1.305-1.178-1.305h-1.051v-0.816h9.662v2.937h-1.196V677.801z"/>
		<path fill="#040000" d="M776.163,675.299c3.317,0,5.348,1.994,5.348,6.2c0,4.061-2.066,6.199-5.348,6.199
			s-5.348-2.139-5.348-6.199C770.815,677.293,772.846,675.299,776.163,675.299z M776.163,686.756c2.229,0,3.607-1.486,3.607-5.257
			s-1.378-5.257-3.607-5.257s-3.607,1.486-3.607,5.257S773.934,686.756,776.163,686.756z"/>
		<path fill="#040000" d="M783.359,675.589h5.729c2.646,0,4.224,1.106,4.224,2.9c0,1.541-1.178,2.61-2.755,2.828v0.072
			c1.45,0.182,1.813,0.726,2.356,2.121l0.87,2.248c0.272,0.707,0.598,0.834,0.997,0.834h0.58v0.815h-2.719
			c-1.74-4.967-1.976-5.547-4.097-5.547h-1.359v3.426c0,1.196,0.399,1.306,1.178,1.306h1.051v0.815h-6.055v-0.815h1.052
			c0.779,0,1.178-0.109,1.178-1.306v-7.577c0-1.196-0.399-1.305-1.178-1.305h-1.052V675.589z M787.185,680.991h1.504
			c1.722,0,2.955-0.707,2.955-2.356c0-1.596-0.943-2.104-3.426-2.104h-1.033V680.991z"/>
		<path fill="#040000" d="M740.578,695.365h4.858v0.816h-1.106c-0.815,0-1.069,0.199-1.069,1.087c0,2.538,0.072,5.094,0.072,7.704
			c0,1.233,0.29,1.396,1.088,1.396h1.015v0.815h-5.42v-0.815h0.78c0.689,0,1.015-0.29,1.015-1.378c0-1.849-0.109-5.547-0.145-8.919
			h-0.037l-3.698,11.112h-1.523l-3.589-10.949h-0.036c-0.073,3.554-0.127,7.777-0.127,8.955c0,1.033,0.362,1.179,1.033,1.179h0.707
			v0.815h-5.13v-0.815h0.798c1.069,0,1.396-0.109,1.396-1.27c0-2.52,0.109-5.039,0.109-7.559c0-0.979-0.199-1.359-1.232-1.359
			h-0.925v-0.816h4.75l3.136,10.079h0.036L740.578,695.365z"/>
		<path fill="#040000" d="M753.25,706.369h0.87c0.543,0,0.833-0.109,0.833-0.436c0-0.127-0.072-0.417-0.181-0.707l-0.562-1.631
			h-4.804l-0.525,1.522c-0.146,0.417-0.218,0.688-0.218,0.815c0,0.272,0.091,0.436,0.779,0.436h0.78v0.815h-4.097v-0.815
			c0.78,0,0.997-0.091,1.215-0.726l3.68-10.278h1.922l3.426,9.626c0.417,1.16,0.689,1.378,1.178,1.378h0.236v0.815h-4.532V706.369z
			 M751.817,696.635h-0.036l-2.049,6.018h4.151L751.817,696.635z"/>
		<path fill="#040000" d="M758.724,695.365h10.659v3.644h-1.196l-0.145-1.74c-0.072-0.87-0.344-1.033-1.468-1.033h-1.722v8.828
			c0,1.196,0.399,1.306,1.178,1.306h0.907v0.815h-5.765v-0.815h0.906c0.78,0,1.178-0.109,1.178-1.306v-8.828h-1.722
			c-1.124,0-1.396,0.163-1.468,1.033l-0.145,1.74h-1.196V695.365z"/>
		<path fill="#040000" d="M772.846,697.486c0-1.196-0.399-1.305-1.178-1.305h-1.051v-0.816h6.054v0.816h-1.051
			c-0.779,0-1.178,0.108-1.178,1.305v7.577c0,1.196,0.399,1.306,1.178,1.306h1.051v0.815h-6.054v-0.815h1.051
			c0.779,0,1.178-0.109,1.178-1.306V697.486z"/>
		<path fill="#040000" d="M783.722,695.075c3.317,0,5.348,1.994,5.348,6.2c0,4.061-2.066,6.199-5.348,6.199
			c-3.281,0-5.348-2.139-5.348-6.199C778.375,697.069,780.405,695.075,783.722,695.075z M783.722,706.532
			c2.23,0,3.607-1.486,3.607-5.257s-1.377-5.258-3.607-5.258c-2.229,0-3.607,1.487-3.607,5.258S781.493,706.532,783.722,706.532z"/>
		<path fill="#040000" d="M798.587,695.365h5.185v0.816h-0.961c-0.671,0-0.942,0.326-0.942,1.214v9.789h-1.922l-5.62-10.623h-0.036
			v8.502c0,1.196,0.398,1.306,1.178,1.306h0.906v0.815h-5.511v-0.815h1.051c0.78,0,1.179-0.109,1.179-1.306v-7.577
			c0-1.196-0.399-1.305-1.179-1.305h-1.051v-0.816h4.55c1.541,2.937,3.789,6.997,5.221,10.297h0.036v-8.267
			c0-0.924-0.218-1.214-1.215-1.214h-0.87V695.365z"/>
	</g>
</g>
<g>
	<g>
		<path fill="#040000" d="M840.935,1031.579h4.858v0.816h-1.106c-0.815,0-1.069,0.199-1.069,1.087c0,2.538,0.072,5.094,0.072,7.704
			c0,1.233,0.29,1.396,1.088,1.396h1.016v0.815h-5.421v-0.815h0.78c0.688,0,1.015-0.29,1.015-1.378c0-1.849-0.108-5.547-0.145-8.919
			h-0.036l-3.698,11.112h-1.522l-3.59-10.949h-0.036c-0.072,3.553-0.127,7.777-0.127,8.955c0,1.033,0.362,1.179,1.033,1.179h0.707
			v0.815h-5.13v-0.815h0.798c1.069,0,1.396-0.109,1.396-1.27c0-2.52,0.108-5.039,0.108-7.559c0-0.979-0.199-1.359-1.232-1.359
			h-0.925v-0.816h4.75l3.136,10.079h0.036L840.935,1031.579z"/>
		<path fill="#040000" d="M853.607,1042.583h0.87c0.543,0,0.833-0.109,0.833-0.436c0-0.127-0.072-0.417-0.181-0.707l-0.562-1.631
			h-4.804l-0.525,1.522c-0.145,0.417-0.218,0.688-0.218,0.815c0,0.272,0.091,0.436,0.779,0.436h0.78v0.815h-4.097v-0.815
			c0.779,0,0.996-0.091,1.214-0.726l3.68-10.278h1.922l3.426,9.626c0.417,1.16,0.689,1.378,1.179,1.378h0.235v0.815h-4.531V1042.583
			z M852.174,1032.849h-0.036l-2.049,6.018h4.151L852.174,1032.849z"/>
		<path fill="#040000" d="M861.093,1033.7c0-1.196-0.398-1.305-1.178-1.305h-1.052v-0.816h6.055v0.816h-1.052
			c-0.779,0-1.178,0.108-1.178,1.305v7.577c0,1.196,0.398,1.306,1.178,1.306h1.052v0.815h-6.055v-0.815h1.052
			c0.779,0,1.178-0.109,1.178-1.306V1033.7z"/>
		<path fill="#040000" d="M873.747,1031.579h5.185v0.816h-0.961c-0.671,0-0.942,0.326-0.942,1.214v9.789h-1.922l-5.619-10.623
			h-0.036v8.502c0,1.196,0.398,1.306,1.178,1.306h0.906v0.815h-5.511v-0.815h1.052c0.779,0,1.179-0.109,1.179-1.306v-7.577
			c0-1.196-0.399-1.305-1.179-1.305h-1.052v-0.816h4.551c1.54,2.937,3.788,6.997,5.221,10.297h0.036v-8.267
			c0-0.924-0.218-1.214-1.215-1.214h-0.87V1031.579z"/>
		<path fill="#040000" d="M812.773,1053.567c0-1.196-0.453-1.269-1.758-1.269h-3.227v4.387h1.776c0.906,0,1.196-0.146,1.196-1.632
			h0.997v4.332h-0.997c0-1.559-0.127-1.758-1.432-1.758h-1.541v4.604h3.897c1.124,0,1.287-0.309,1.287-2.104h1.196v3.046h-10.061
			v-0.815h0.906c0.779,0,1.178-0.109,1.178-1.306v-7.577c0-1.196-0.398-1.305-1.178-1.305h-0.906v-0.816h9.861v2.937h-1.197
			V1053.567z"/>
		<path fill="#040000" d="M823.868,1051.355h5.185v0.816h-0.961c-0.671,0-0.942,0.326-0.942,1.214v9.789h-1.922l-5.619-10.623
			h-0.036v8.502c0,1.196,0.398,1.306,1.178,1.306h0.906v0.815h-5.511v-0.815h1.052c0.779,0,1.179-0.109,1.179-1.306v-7.577
			c0-1.196-0.399-1.305-1.179-1.305h-1.052v-0.816h4.551c1.54,2.937,3.788,6.997,5.221,10.297h0.036v-8.267
			c0-0.924-0.218-1.214-1.215-1.214h-0.87V1051.355z"/>
		<path fill="#040000" d="M830.375,1051.355h10.659v3.644h-1.196l-0.146-1.74c-0.072-0.87-0.344-1.033-1.468-1.033h-1.723v8.828
			c0,1.196,0.399,1.306,1.179,1.306h0.906v0.815h-5.765v-0.815h0.906c0.78,0,1.179-0.109,1.179-1.306v-8.828h-1.723
			c-1.123,0-1.396,0.163-1.468,1.033l-0.146,1.74h-1.196V1051.355z"/>
		<path fill="#040000" d="M842.413,1051.355h5.729c2.646,0,4.224,1.106,4.224,2.9c0,1.541-1.179,2.61-2.756,2.828v0.072
			c1.45,0.182,1.813,0.726,2.356,2.121l0.87,2.248c0.272,0.707,0.599,0.834,0.997,0.834h0.58v0.815h-2.719
			c-1.74-4.967-1.976-5.547-4.097-5.547h-1.359v3.426c0,1.196,0.398,1.306,1.178,1.306h1.052v0.815h-6.055v-0.815h1.052
			c0.779,0,1.178-0.109,1.178-1.306v-7.577c0-1.196-0.398-1.305-1.178-1.305h-1.052V1051.355z M846.238,1056.758h1.504
			c1.723,0,2.955-0.707,2.955-2.356c0-1.596-0.942-2.103-3.426-2.103h-1.033V1056.758z"/>
		<path fill="#040000" d="M862.19,1062.359h0.87c0.543,0,0.833-0.109,0.833-0.436c0-0.127-0.072-0.417-0.181-0.707l-0.562-1.631
			h-4.804l-0.525,1.522c-0.145,0.417-0.218,0.688-0.218,0.815c0,0.272,0.091,0.436,0.779,0.436h0.78v0.815h-4.097v-0.815
			c0.779,0,0.996-0.091,1.214-0.726l3.68-10.278h1.922l3.426,9.626c0.417,1.16,0.689,1.378,1.179,1.378h0.235v0.815h-4.531V1062.359
			z M860.757,1052.625h-0.036l-2.049,6.018h4.151L860.757,1052.625z"/>
		<path fill="#040000" d="M875.259,1051.355h5.185v0.816h-0.96c-0.671,0-0.943,0.326-0.943,1.214v9.789h-1.921l-5.62-10.623h-0.036
			v8.502c0,1.196,0.399,1.306,1.179,1.306h0.906v0.815h-5.511v-0.815h1.051c0.78,0,1.179-0.109,1.179-1.306v-7.577
			c0-1.196-0.398-1.305-1.179-1.305h-1.051v-0.816h4.55c1.541,2.937,3.789,6.997,5.221,10.297h0.036v-8.267
			c0-0.924-0.218-1.214-1.215-1.214h-0.87V1051.355z"/>
		<path fill="#040000" d="M891.43,1059.567l-0.146,3.372c-0.979,0.271-2.121,0.525-3.607,0.525c-2.882,0-5.438-1.359-5.438-5.656
			c0-4.35,2.03-6.743,5.638-6.743c1.196,0,2.538,0.254,3.427,0.544v3.336h-1.196c-0.091-2.121-0.218-2.938-2.23-2.938
			c-2.501,0-3.897,1.74-3.897,5.584c0,3.1,1.179,4.931,3.861,4.931c1.958,0,2.229-0.816,2.32-2.955H891.43z"/>
		<path fill="#040000" d="M902.452,1053.567c0-1.196-0.453-1.269-1.759-1.269h-3.227v4.387h1.776c0.906,0,1.196-0.146,1.196-1.632
			h0.997v4.332h-0.997c0-1.559-0.126-1.758-1.432-1.758h-1.541v4.604h3.897c1.124,0,1.287-0.309,1.287-2.104h1.196v3.046h-10.061
			v-0.815h0.906c0.779,0,1.179-0.109,1.179-1.306v-7.577c0-1.196-0.399-1.305-1.179-1.305h-0.906v-0.816h9.861v2.937h-1.196
			V1053.567z"/>
	</g>
</g>
<g>
	<g>
		<path fill="#040000" d="M1134.594,693.523c0-0.924-0.326-1.124-1.16-1.124h-1.143v-0.815h5.692v0.815h-0.942
			c-0.635,0-0.925,0.236-0.925,1.16v2.684c-1.359,0.453-2.683,0.688-4.188,0.688c-2.882,0-5.438-1.359-5.438-5.674
			c0-4.786,2.447-6.726,6.218-6.726c1.033,0,2.176,0.163,3.408,0.436v3.19h-1.269l-0.109-1.469
			c-0.054-0.616-0.417-1.215-2.157-1.215c-2.719,0-4.351,1.56-4.351,5.529c0,2.52,0.907,4.985,3.934,4.985
			c0.726,0,1.523-0.163,2.43-0.436V693.523z"/>
		<path fill="#040000" d="M1145.725,695.826h0.87c0.543,0,0.833-0.109,0.833-0.436c0-0.127-0.072-0.417-0.181-0.707l-0.562-1.631
			h-4.804l-0.525,1.522c-0.145,0.417-0.218,0.688-0.218,0.815c0,0.272,0.091,0.436,0.779,0.436h0.78v0.815h-4.097v-0.815
			c0.779,0,0.996-0.091,1.214-0.726l3.68-10.278h1.922l3.426,9.626c0.417,1.16,0.689,1.378,1.179,1.378h0.235v0.815h-4.531V695.826z
			 M1144.292,686.092h-0.036l-2.049,6.018h4.151L1144.292,686.092z"/>
		<path fill="#040000" d="M1151.127,684.822h6.108v0.816h-1.251c-0.779,0-1.178,0.108-1.178,1.305v8.756h3.589
			c1.016,0,1.232-0.182,1.232-2.356v-0.58h1.196v3.879h-9.697v-0.815h0.906c0.779,0,1.178-0.109,1.178-1.306v-7.577
			c0-1.196-0.398-1.305-1.178-1.305h-0.906V684.822z"/>
		<path fill="#040000" d="M1162.204,684.822h6.108v0.816h-1.251c-0.779,0-1.178,0.108-1.178,1.305v8.756h3.589
			c1.016,0,1.232-0.182,1.232-2.356v-0.58h1.196v3.879h-9.697v-0.815h0.906c0.779,0,1.178-0.109,1.178-1.306v-7.577
			c0-1.196-0.398-1.305-1.178-1.305h-0.906V684.822z"/>
		<path fill="#040000" d="M1181.944,687.034c0-1.196-0.453-1.269-1.758-1.269h-3.227v4.387h1.776c0.906,0,1.196-0.146,1.196-1.632
			h0.997v4.332h-0.997c0-1.559-0.127-1.758-1.432-1.758h-1.541v4.604h3.897c1.124,0,1.287-0.309,1.287-2.104h1.196v3.046h-10.061
			v-0.815h0.906c0.779,0,1.178-0.109,1.178-1.306v-7.577c0-1.196-0.398-1.305-1.178-1.305h-0.906v-0.816h9.861v2.937h-1.197V687.034
			z"/>
		<path fill="#040000" d="M1185.371,684.822h5.729c2.646,0,4.224,1.106,4.224,2.9c0,1.541-1.179,2.61-2.756,2.828v0.072
			c1.45,0.182,1.813,0.726,2.356,2.121l0.87,2.248c0.272,0.707,0.599,0.834,0.997,0.834h0.58v0.815h-2.719
			c-1.74-4.967-1.976-5.547-4.097-5.547h-1.359v3.426c0,1.196,0.398,1.306,1.178,1.306h1.052v0.815h-6.055v-0.815h1.052
			c0.779,0,1.178-0.109,1.178-1.306v-7.577c0-1.196-0.398-1.305-1.178-1.305h-1.052V684.822z M1189.196,690.225h1.504
			c1.723,0,2.955-0.707,2.955-2.356c0-1.596-0.942-2.103-3.426-2.103h-1.033V690.225z"/>
		<path fill="#040000" d="M1205.329,684.822h4.351v0.816h-0.525c-0.326,0-0.525,0.09-0.889,0.707l-3.625,6.254v1.921
			c0,1.196,0.398,1.306,1.178,1.306h0.907v0.815h-5.91v-0.815h1.052c0.779,0,1.178-0.109,1.178-1.306V692.6l-3.498-6.309
			c-0.29-0.525-0.526-0.652-0.942-0.652h-0.58v-0.816h4.821v0.816h-0.725c-0.689,0-0.87,0.127-0.87,0.326
			c0,0.145,0.072,0.398,0.235,0.688l2.592,4.804l2.629-4.695c0.108-0.199,0.254-0.489,0.254-0.707c0-0.308-0.254-0.416-0.652-0.416
			h-0.979V684.822z"/>
		<path fill="#040000" d="M1126.029,706.811c0-1.196-0.453-1.27-1.759-1.27h-3.227v4.388h1.776c0.906,0,1.196-0.146,1.196-1.632
			h0.997v4.332h-0.997c0-1.559-0.126-1.758-1.432-1.758h-1.541v4.604h3.897c1.124,0,1.287-0.309,1.287-2.103h1.196v3.045h-10.061
			v-0.815h0.906c0.779,0,1.179-0.109,1.179-1.306v-7.577c0-1.196-0.399-1.305-1.179-1.305h-0.906v-0.816h9.861v2.937h-1.196V706.811
			z"/>
		<path fill="#040000" d="M1137.123,704.599h5.185v0.816h-0.96c-0.671,0-0.943,0.326-0.943,1.214v9.789h-1.921l-5.62-10.623h-0.036
			v8.502c0,1.196,0.399,1.306,1.179,1.306h0.906v0.815h-5.511v-0.815h1.051c0.78,0,1.179-0.109,1.179-1.306v-7.577
			c0-1.196-0.398-1.305-1.179-1.305h-1.051v-0.816h4.55c1.541,2.937,3.789,6.997,5.221,10.297h0.036v-8.267
			c0-0.924-0.218-1.214-1.215-1.214h-0.87V704.599z"/>
		<path fill="#040000" d="M1143.631,704.599h10.659v3.644h-1.197l-0.145-1.74c-0.072-0.87-0.345-1.033-1.469-1.033h-1.722v8.828
			c0,1.196,0.398,1.306,1.178,1.306h0.907v0.815h-5.765v-0.815h0.906c0.779,0,1.178-0.109,1.178-1.306v-8.828h-1.722
			c-1.124,0-1.396,0.163-1.469,1.033l-0.145,1.74h-1.196V704.599z"/>
		<path fill="#040000" d="M1155.668,704.599h5.728c2.646,0,4.224,1.106,4.224,2.9c0,1.541-1.178,2.61-2.755,2.828v0.072
			c1.45,0.182,1.812,0.726,2.356,2.121l0.87,2.248c0.271,0.707,0.599,0.834,0.997,0.834h0.58v0.815h-2.719
			c-1.74-4.967-1.977-5.547-4.098-5.547h-1.359v3.426c0,1.196,0.399,1.306,1.179,1.306h1.051v0.815h-6.054v-0.815h1.051
			c0.779,0,1.179-0.109,1.179-1.306v-7.577c0-1.196-0.399-1.305-1.179-1.305h-1.051V704.599z M1159.493,710.001h1.505
			c1.722,0,2.955-0.707,2.955-2.356c0-1.596-0.943-2.104-3.427-2.104h-1.033V710.001z"/>
		<path fill="#040000" d="M1175.446,715.603h0.87c0.543,0,0.833-0.109,0.833-0.436c0-0.127-0.072-0.417-0.181-0.707l-0.562-1.631
			h-4.804l-0.525,1.522c-0.145,0.417-0.218,0.688-0.218,0.815c0,0.272,0.091,0.436,0.779,0.436h0.78v0.815h-4.097v-0.815
			c0.779,0,0.996-0.091,1.214-0.726l3.68-10.278h1.922l3.426,9.626c0.417,1.16,0.689,1.378,1.179,1.378h0.235v0.815h-4.531V715.603z
			 M1174.013,705.868h-0.036l-2.049,6.018h4.151L1174.013,705.868z"/>
		<path fill="#040000" d="M1188.515,704.599h5.185v0.816h-0.96c-0.671,0-0.943,0.326-0.943,1.214v9.789h-1.921l-5.62-10.623h-0.036
			v8.502c0,1.196,0.399,1.306,1.179,1.306h0.906v0.815h-5.511v-0.815h1.051c0.78,0,1.179-0.109,1.179-1.306v-7.577
			c0-1.196-0.398-1.305-1.179-1.305h-1.051v-0.816h4.55c1.541,2.937,3.789,6.997,5.221,10.297h0.036v-8.267
			c0-0.924-0.218-1.214-1.215-1.214h-0.87V704.599z"/>
		<path fill="#040000" d="M1204.686,712.811l-0.146,3.372c-0.979,0.271-2.121,0.525-3.607,0.525c-2.882,0-5.438-1.359-5.438-5.655
			c0-4.352,2.03-6.744,5.638-6.744c1.196,0,2.538,0.254,3.427,0.544v3.336h-1.196c-0.091-2.121-0.218-2.937-2.23-2.937
			c-2.501,0-3.897,1.74-3.897,5.583c0,3.1,1.179,4.931,3.861,4.931c1.958,0,2.229-0.816,2.32-2.955H1204.686z"/>
		<path fill="#040000" d="M1215.708,706.811c0-1.196-0.453-1.27-1.759-1.27h-3.227v4.388h1.776c0.906,0,1.196-0.146,1.196-1.632
			h0.997v4.332h-0.997c0-1.559-0.126-1.758-1.432-1.758h-1.541v4.604h3.897c1.124,0,1.287-0.309,1.287-2.103h1.196v3.045h-10.061
			v-0.815h0.906c0.779,0,1.179-0.109,1.179-1.306v-7.577c0-1.196-0.399-1.305-1.179-1.305h-0.906v-0.816h9.861v2.937h-1.196V706.811
			z"/>
	</g>
</g>
<g>
	<rect x="1256.89" y="421.181" fill="#040000" width="5.256" height="160.57"/>
	<rect x="1262.146" y="421.18" fill="none" width="8.759" height="160.571"/>
</g>
<g>
	<rect x="1256.89" y="151.939" fill="#040000" width="5.256" height="149.832"/>
	<rect x="1262.146" y="151.938" fill="none" width="8.759" height="149.833"/>
</g>
<g>
	
		<rect x="1167.732" y="42.15" transform="matrix(-0.0872 0.9962 -0.9962 -0.0872 1401.6565 -1024.8182)" fill="#040000" width="5.254" height="175.249"/>
	
		<rect x="1166.59" y="35.168" transform="matrix(-0.0872 0.9962 -0.9962 -0.0872 1395.3896 -1033.01)" fill="none" width="8.759" height="175.251"/>
</g>
<g>
	
		<rect x="979.263" y="25.371" transform="matrix(-0.087 0.9962 -0.9962 -0.087 1179.834 -855.3523)" fill="#040000" width="5.256" height="175.249"/>
	
		<rect x="978.122" y="18.389" transform="matrix(-0.0872 0.9962 -0.9962 -0.0872 1173.7828 -863.5015)" fill="none" width="8.758" height="175.249"/>
</g>
<g>
	
		<rect x="790.797" y="9.065" transform="matrix(-0.087 0.9962 -0.9962 -0.087 958.7611 -685.3181)" fill="#040000" width="5.254" height="175.248"/>
	
		<rect x="789.655" y="2.083" transform="matrix(-0.0872 0.9962 -0.9962 -0.0872 952.6306 -693.481)" fill="none" width="8.759" height="175.25"/>
</g>
<g>
	
		<rect x="582.939" y="-25.784" transform="matrix(-0.0872 0.9962 -0.9962 -0.0872 715.0087 -497.8176)" fill="#040000" width="5.255" height="208.878"/>
	
		<rect x="581.798" y="-32.766" transform="matrix(-0.0872 0.9962 -0.9962 -0.0872 708.6859 -506.0223)" fill="none" width="8.759" height="208.879"/>
</g>
<g>
	
		<rect x="360.908" y="-45.211" transform="matrix(-0.0871 0.9962 -0.9962 -0.0871 454.2158 -297.7648)" fill="#040000" width="5.256" height="208.877"/>
	
		<rect x="359.767" y="-52.194" transform="matrix(-0.0872 0.9962 -0.9962 -0.0872 447.9422 -305.958)" fill="none" width="8.759" height="208.88"/>
</g>
<g>
	<rect x="1207.941" y="318.421" fill="#040000" width="54.205" height="5.255"/>
	<rect x="1207.941" y="322.8" fill="none" width="54.205" height="8.759"/>
</g>
<g>
	<rect x="915.035" y="318.422" fill="#040000" width="197.3" height="5.254"/>
	<rect x="915.035" y="322.8" fill="none" width="197.305" height="8.758"/>
</g>
<g>
	<rect x="716.978" y="318.422" fill="#040000" width="184.038" height="5.254"/>
	<rect x="716.978" y="322.8" fill="none" width="184.044" height="8.758"/>
</g>
<g>
	<rect x="453.575" y="318.422" fill="#040000" width="234.566" height="5.254"/>
	<rect x="453.575" y="322.8" fill="none" width="234.572" height="8.758"/>
</g>
<g>
	<rect x="271.484" y="318.422" fill="#040000" width="168.073" height="5.254"/>
	<rect x="271.484" y="322.8" fill="none" width="168.076" height="8.758"/>
</g>
<g>
	<rect x="677.837" y="620.438" fill="#040000" width="5.256" height="72.058"/>
	<rect x="683.093" y="620.438" fill="none" width="8.758" height="72.059"/>
</g>
<g>
	<rect x="677.837" y="343.12" fill="#040000" width="5.256" height="263.756"/>
	<rect x="683.093" y="343.115" fill="none" width="8.758" height="263.761"/>
</g>
<g>
	<rect x="271.491" y="340.667" fill="#040000" width="393.436" height="5.256"/>
	<rect x="271.484" y="331.909" fill="none" width="393.443" height="8.758"/>
</g>
<g>
	<rect x="253.143" y="418.519" fill="#040000" width="5.256" height="273.969"/>
	<rect x="244.385" y="418.519" fill="none" width="8.758" height="273.969"/>
</g>
<g>
	<rect x="21.395" y="238.585" fill="#040000" width="168.072" height="5.255"/>
	<rect x="21.391" y="229.826" fill="none" width="168.076" height="8.759"/>
</g>
<g>
	<rect x="20.067" y="250.847" fill="#040000" width="5.255" height="166.319"/>
	<rect x="11.309" y="250.847" fill="none" width="8.758" height="166.321"/>
</g>
<g>
	<rect x="20.067" y="431.181" fill="#040000" width="5.255" height="166.318"/>
	<rect x="11.309" y="431.181" fill="none" width="8.758" height="166.321"/>
</g>
<g>
	<rect x="69.167" y="772.58" fill="#040000" width="107.729" height="5.256"/>
	<rect x="69.167" y="777.836" fill="none" width="107.73" height="8.758"/>
</g>
<g>
	<rect x="171.645" y="522.902" fill="#040000" width="5.253" height="148.058"/>
	<rect x="176.898" y="522.901" fill="none" width="8.759" height="148.059"/>
</g>
<g>
	<rect x="171.643" y="685.093" fill="#040000" width="5.252" height="92.741"/>
	<rect x="176.896" y="685.093" fill="none" width="8.758" height="92.741"/>
</g>
<g>
	<rect x="20.067" y="611.514" fill="#040000" width="5.255" height="166.319"/>
	<rect x="11.309" y="611.514" fill="none" width="8.758" height="166.321"/>
</g>
<g>
	<rect x="259.911" y="100.609" fill="#040000" width="5.255" height="217.137"/>
	<rect x="251.152" y="100.609" fill="none" width="8.758" height="217.146"/>
</g>
<rect x="901.022" y="319.297" fill="none" width="14.013" height="12.261"/>
<rect x="439.561" y="319.297" fill="none" width="14.015" height="12.261"/>
<rect x="18.181" y="777.835" fill="none" width="11.357" height="8.759"/>
<g>
	<path fill="#040000" d="M529.902,476.04v121.468h-34.306V476.04H529.902 M530.902,475.04h-1h-34.306h-1v1v121.468v1h1h34.306h1v-1
		V476.04V475.04L530.902,475.04z"/>
</g>
<g>
	<path fill="#040000" d="M454.466,476.039v59.858H420.16v-59.858H454.466 M455.466,475.039h-1H420.16h-1v1v59.858v1h1h34.306h1v-1
		v-59.858V475.039L455.466,475.039z"/>
</g>
<g>
	<path fill="#040000" d="M454.466,536.772v59.858H420.16v-59.858H454.466 M455.466,535.772h-1H420.16h-1v1v59.858v1h1h34.306h1v-1
		v-59.858V535.772L455.466,535.772z"/>
</g>
<g>
	<path fill="#040000" d="M365.573,384.105v34.307h-59.86v-34.307H365.573 M366.573,383.105h-1h-59.86h-1v1v34.307v1h1h59.86h1v-1
		v-34.307V383.105L366.573,383.105z"/>
</g>
<g>
	<path fill="#040000" d="M340.019,458.125v59.86h-34.307v-59.86H340.019 M341.019,457.125h-1h-34.307h-1v1v59.86v1h1h34.307h1v-1
		v-59.86V457.125L341.019,457.125z"/>
</g>
<g>
	<path fill="#040000" d="M490.263,384.105v34.307h-59.86v-34.307H490.263 M491.263,383.105h-1h-59.86h-1v1v34.307v1h1h59.86h1v-1
		v-34.307V383.105L491.263,383.105z"/>
</g>
<g>
	<path fill="#040000" d="M614.954,384.105v34.307h-59.86v-34.307H614.954 M615.954,383.105h-1h-59.86h-1v1v34.307v1h1h59.86h1v-1
		v-34.307V383.105L615.954,383.105z"/>
</g>
<g>
	<path fill="#040000" d="M340.019,563.334v59.858h-34.307v-59.858H340.019 M341.019,562.334h-1h-34.307h-1v1v59.858v1h1h34.307h1v-1
		v-59.858V562.334L341.019,562.334z"/>
</g>
<g>
	<path fill="#040000" d="M189.466,291.969v37.204h-37.204v-37.204H189.466 M190.466,290.969h-1h-37.204h-1v1v37.204v1h1h37.204h1v-1
		v-37.204V290.969L190.466,290.969z"/>
</g>
<g>
	<g>
		<path fill="#040000" d="M1232.841,501.527c0-1.051-0.371-1.277-1.318-1.277h-1.298v-0.927h6.468v0.927h-1.07
			c-0.722,0-1.051,0.268-1.051,1.318v3.049c-1.545,0.515-3.049,0.783-4.759,0.783c-3.275,0-6.18-1.546-6.18-6.448
			c0-5.438,2.781-7.643,7.065-7.643c1.174,0,2.472,0.186,3.873,0.495v3.625h-1.442l-0.123-1.668
			c-0.062-0.701-0.475-1.381-2.452-1.381c-3.09,0-4.943,1.771-4.943,6.283c0,2.863,1.03,5.665,4.47,5.665
			c0.824,0,1.73-0.186,2.761-0.495V501.527z"/>
		<path fill="#040000" d="M1239.721,492.258c1.772-0.083,2.946-0.33,4.1-0.742v11.371c0,1.01,0.288,1.257,1.277,1.257h0.804v0.927
			h-6.181v-0.927h0.865c0.989,0,1.34-0.31,1.34-1.545v-8.055c0-0.886-0.31-1.298-1.216-1.298h-0.989V492.258z"/>
	</g>
</g>
<g>
	<g>
		<path fill="#040000" d="M1232.841,230.246c0-1.051-0.371-1.277-1.318-1.277h-1.298v-0.927h6.468v0.927h-1.07
			c-0.722,0-1.051,0.268-1.051,1.318v3.049c-1.545,0.515-3.049,0.783-4.759,0.783c-3.275,0-6.18-1.546-6.18-6.448
			c0-5.438,2.781-7.643,7.065-7.643c1.174,0,2.472,0.186,3.873,0.495v3.625h-1.442l-0.123-1.668
			c-0.062-0.701-0.475-1.381-2.452-1.381c-3.09,0-4.943,1.771-4.943,6.283c0,2.863,1.03,5.665,4.47,5.665
			c0.824,0,1.73-0.186,2.761-0.495V230.246z"/>
		<path fill="#040000" d="M1238.321,232.224c6.406-6.057,6.818-7.086,6.818-8.837c0-1.524-0.927-2.287-2.327-2.287
			c-1.504,0-2.39,0.969-2.432,3.193h-1.812c0.041-2.308,0.722-4.265,4.326-4.265c2.863,0,4.141,1.381,4.141,3.399
			c0,1.854-0.639,2.986-6.716,8.713h4.718c0.823,0,0.988-0.309,1.05-1.235h1.071v2.884h-8.837V232.224z"/>
	</g>
</g>
<g>
	<g>
		<path fill="#040000" d="M1159.871,153.161c0-1.051-0.37-1.277-1.318-1.277h-1.298v-0.927h6.469v0.927h-1.071
			c-0.721,0-1.051,0.268-1.051,1.318v3.049c-1.545,0.515-3.049,0.782-4.758,0.782c-3.275,0-6.181-1.545-6.181-6.447
			c0-5.438,2.781-7.643,7.066-7.643c1.174,0,2.472,0.186,3.872,0.495v3.625h-1.441l-0.124-1.668
			c-0.062-0.701-0.474-1.381-2.451-1.381c-3.09,0-4.944,1.771-4.944,6.283c0,2.863,1.03,5.665,4.471,5.665
			c0.824,0,1.73-0.186,2.76-0.495V153.161z"/>
		<path fill="#040000" d="M1168.172,149.309h0.495c2.431,0,3.233-0.865,3.233-2.863c0-1.606-0.927-2.431-2.286-2.431
			c-1.627,0-2.184,1.298-2.204,2.616h-1.812c0.041-2.143,1.462-3.688,4.017-3.688c2.369,0,4.182,1.092,4.182,3.749
			c0,1.628-1.071,2.699-2.616,3.173v0.041c2.039,0.288,3.008,1.38,3.008,3.316c0,2.41-1.689,3.811-4.594,3.811
			c-3.234,0-4.326-1.318-4.388-3.872h1.812c0.062,1.647,0.721,2.802,2.451,2.802c1.916,0,2.822-1.154,2.822-2.761
			c0-2.163-1.359-2.698-3.543-2.698h-0.577V149.309z"/>
	</g>
</g>
<g>
	<g>
		<path fill="#040000" d="M976.173,136.188c0-1.051-0.37-1.277-1.318-1.277h-1.298v-0.927h6.469v0.927h-1.071
			c-0.721,0-1.051,0.268-1.051,1.318v3.049c-1.545,0.515-3.049,0.783-4.758,0.783c-3.275,0-6.181-1.546-6.181-6.448
			c0-5.438,2.781-7.643,7.066-7.643c1.174,0,2.472,0.186,3.872,0.495v3.625h-1.441l-0.124-1.668
			c-0.062-0.701-0.474-1.381-2.451-1.381c-3.09,0-4.944,1.771-4.944,6.283c0,2.863,1.03,5.665,4.471,5.665
			c0.824,0,1.73-0.186,2.76-0.495V136.188z"/>
		<path fill="#040000" d="M981.571,134.643l6.098-8.343h1.978v8.425h2.843v1.195h-2.843v1.978c0,0.7,0.412,0.906,1.277,0.906h0.824
			v0.927h-5.933v-0.927h0.824c0.864,0,1.276-0.206,1.276-0.906v-1.978h-6.345V134.643z M987.916,128.195h-0.041l-4.737,6.529h4.778
			V128.195z"/>
	</g>
</g>
<rect x="779.778" y="107.336" fill="none" width="27.322" height="27.322"/>
<g>
	<g>
		<path fill="#040000" d="M789.187,118.328c0-1.051-0.371-1.277-1.318-1.277h-1.298v-0.927h6.468v0.927h-1.071
			c-0.721,0-1.05,0.268-1.05,1.318v3.049c-1.545,0.515-3.049,0.783-4.758,0.783c-3.275,0-6.18-1.546-6.18-6.448
			c0-5.438,2.781-7.643,7.066-7.643c1.174,0,2.472,0.186,3.873,0.495v3.625h-1.442l-0.124-1.668
			c-0.062-0.701-0.474-1.381-2.452-1.381c-3.09,0-4.944,1.771-4.944,6.283c0,2.863,1.03,5.665,4.47,5.665
			c0.824,0,1.73-0.186,2.76-0.495V118.328z"/>
		<path fill="#040000" d="M795.347,108.44h7.664v1.647h-6.284l-0.124,3.853c1.071-0.783,1.854-0.989,2.946-0.989
			c2.431,0,4.203,1.524,4.203,4.408c0,3.152-1.71,4.842-4.903,4.842c-2.863,0-4.141-1.463-4.161-3.894h1.73
			c0.021,1.483,0.638,2.822,2.534,2.822c1.668,0,2.822-1.01,2.822-3.44c0-2.349-0.948-3.543-2.719-3.543
			c-1.03,0-2.04,0.494-2.596,1.751H795.1L795.347,108.44z"/>
	</g>
</g>
<g>
	<g>
		<path fill="#040000" d="M580.581,101.048c0-1.051-0.371-1.277-1.318-1.277h-1.298v-0.927h6.468v0.927h-1.071
			c-0.721,0-1.05,0.268-1.05,1.318v3.049c-1.545,0.515-3.049,0.782-4.758,0.782c-3.275,0-6.18-1.545-6.18-6.447
			c0-5.438,2.781-7.643,7.066-7.643c1.174,0,2.472,0.186,3.873,0.495v3.625h-1.442l-0.124-1.668
			c-0.062-0.701-0.474-1.381-2.452-1.381c-3.09,0-4.944,1.771-4.944,6.283c0,2.863,1.03,5.665,4.47,5.665
			c0.824,0,1.73-0.186,2.76-0.495V101.048z"/>
		<path fill="#040000" d="M593.043,93.982c-0.165-1.051-0.494-2.081-2.039-2.081c-2.369,0-2.946,2.163-3.008,5.562
			c0.927-0.886,1.937-1.34,3.255-1.34c2.142,0,3.955,1.277,3.955,4.265c0,2.719-1.648,4.531-4.594,4.531
			c-1.401,0-2.904-0.617-3.605-1.606c-0.741-1.051-0.989-2.184-0.989-4.635c0-4.861,1.195-7.849,5.026-7.849
			c2.493,0,3.605,1.01,3.811,3.152H593.043z M590.695,103.85c1.462,0,2.616-1.03,2.616-3.316c0-2.308-1.154-3.338-2.616-3.338
			s-2.616,1.03-2.616,3.338C588.079,102.819,589.233,103.85,590.695,103.85z"/>
	</g>
</g>
<g>
	<g>
		<path fill="#040000" d="M355.731,83.768c0-1.051-0.371-1.277-1.318-1.277h-1.298v-0.927h6.468v0.927h-1.071
			c-0.721,0-1.05,0.268-1.05,1.318v3.049c-1.545,0.515-3.049,0.783-4.758,0.783c-3.275,0-6.18-1.546-6.18-6.448
			c0-5.438,2.781-7.643,7.066-7.643c1.174,0,2.472,0.186,3.873,0.495v3.625h-1.442l-0.124-1.668
			c-0.062-0.701-0.474-1.381-2.452-1.381c-3.09,0-4.944,1.771-4.944,6.283c0,2.863,1.03,5.665,4.47,5.665
			c0.824,0,1.73-0.186,2.76-0.495V83.768z"/>
		<path fill="#040000" d="M361.293,73.88h8.94v1.483l-5.006,11.947h-1.895l5.417-11.783h-5.417c-0.803,0-0.948,0.453-0.968,1.339
			h-1.071V73.88z"/>
	</g>
</g>
<g>
	<g>
		<path fill="#040000" d="M285.063,205.964c0-1.051-0.371-1.277-1.318-1.277h-1.298v-0.927h6.468v0.927h-1.071
			c-0.721,0-1.051,0.268-1.051,1.318v3.049c-1.545,0.515-3.049,0.782-4.758,0.782c-3.275,0-6.18-1.545-6.18-6.447
			c0-5.438,2.781-7.643,7.066-7.643c1.174,0,2.472,0.186,3.873,0.495v3.625h-1.442l-0.124-1.668
			c-0.062-0.701-0.474-1.381-2.452-1.381c-3.09,0-4.944,1.771-4.944,6.283c0,2.863,1.03,5.665,4.47,5.665
			c0.824,0,1.73-0.186,2.76-0.495V205.964z"/>
		<path fill="#040000" d="M299.401,199.331c0,1.4-0.638,2.616-2.348,3.233v0.042c2.06,0.617,2.74,2.019,2.74,3.522
			c0,2.431-1.937,3.707-4.697,3.707s-4.697-1.276-4.697-3.707c0-1.504,0.68-2.905,2.74-3.522v-0.042
			c-1.709-0.617-2.348-1.833-2.348-3.233c0-2.637,2.163-3.585,4.305-3.585C297.238,195.746,299.401,196.694,299.401,199.331z
			 M295.096,208.848c1.586,0,2.802-0.886,2.802-2.904c0-1.957-1.215-2.863-2.802-2.863c-1.565,0-2.801,0.906-2.801,2.863
			C292.294,207.962,293.53,208.848,295.096,208.848z M295.096,196.735c-1.545,0-2.493,0.968-2.493,2.678s0.948,2.678,2.493,2.678
			s2.493-0.968,2.493-2.678S296.641,196.735,295.096,196.735z"/>
	</g>
</g>
<g>
	<g>
		<path fill="#040000" d="M360.029,305.409c0-1.051-0.371-1.277-1.318-1.277h-1.298v-0.927h6.468v0.927h-1.071
			c-0.721,0-1.05,0.268-1.05,1.318v3.049c-1.545,0.515-3.049,0.782-4.758,0.782c-3.275,0-6.18-1.545-6.18-6.447
			c0-5.438,2.781-7.643,7.066-7.643c1.174,0,2.472,0.186,3.873,0.495v3.625h-1.442l-0.124-1.668
			c-0.062-0.701-0.474-1.381-2.452-1.381c-3.09,0-4.944,1.771-4.944,6.283c0,2.863,1.03,5.665,4.47,5.665
			c0.824,0,1.73-0.186,2.76-0.495V305.409z"/>
		<path fill="#040000" d="M367.63,306.13c0.165,1.051,0.495,2.081,2.04,2.081c2.369,0,2.945-2.163,3.007-5.562
			c-0.927,0.886-1.937,1.339-3.255,1.339c-2.142,0-3.955-1.276-3.955-4.264c0-2.719,1.648-4.532,4.594-4.532
			c1.401,0,2.905,0.618,3.605,1.607c0.742,1.05,0.989,2.184,0.989,4.635c0,4.861-1.195,7.848-5.026,7.848
			c-2.493,0-3.605-1.009-3.811-3.151H367.63z M369.979,302.917c1.463,0,2.616-1.03,2.616-3.338c0-2.286-1.153-3.316-2.616-3.316
			c-1.462,0-2.616,1.03-2.616,3.316C367.363,301.887,368.516,302.917,369.979,302.917z"/>
	</g>
</g>
<g>
	<g>
		<path fill="#040000" d="M562.796,305.409c0-1.051-0.371-1.277-1.318-1.277h-1.298v-0.927h6.468v0.927h-1.071
			c-0.721,0-1.05,0.268-1.05,1.318v3.049c-1.545,0.515-3.049,0.782-4.758,0.782c-3.275,0-6.18-1.545-6.18-6.447
			c0-5.438,2.781-7.643,7.066-7.643c1.174,0,2.472,0.186,3.873,0.495v3.625h-1.442l-0.124-1.668
			c-0.062-0.701-0.474-1.381-2.452-1.381c-3.09,0-4.944,1.771-4.944,6.283c0,2.863,1.03,5.665,4.47,5.665
			c0.824,0,1.73-0.186,2.76-0.495V305.409z"/>
		<path fill="#040000" d="M567.617,296.14c1.772-0.083,2.946-0.33,4.1-0.742v11.371c0,1.01,0.288,1.257,1.277,1.257h0.804v0.927
			h-6.18v-0.927h0.865c0.989,0,1.339-0.31,1.339-1.545v-8.055c0-0.886-0.309-1.298-1.216-1.298h-0.989V296.14z"/>
		<path fill="#040000" d="M580.162,295.191c3.152,0,4.861,2.287,4.861,7.045c0,4.759-1.709,7.045-4.861,7.045
			s-4.861-2.286-4.861-7.045C575.301,297.479,577.01,295.191,580.162,295.191z M580.162,308.211c1.875,0,2.884-1.277,2.884-5.975
			c0-4.696-1.009-5.974-2.884-5.974s-2.884,1.277-2.884,5.974C577.278,306.934,578.288,308.211,580.162,308.211z"/>
	</g>
</g>
<g>
	<g>
		<path fill="#040000" d="M798.605,305.409c0-1.051-0.371-1.277-1.318-1.277h-1.298v-0.927h6.468v0.927h-1.07
			c-0.722,0-1.051,0.268-1.051,1.318v3.049c-1.545,0.515-3.049,0.782-4.758,0.782c-3.275,0-6.18-1.545-6.18-6.447
			c0-5.438,2.781-7.643,7.066-7.643c1.174,0,2.472,0.186,3.873,0.495v3.625h-1.442l-0.124-1.668
			c-0.062-0.701-0.474-1.381-2.452-1.381c-3.09,0-4.944,1.771-4.944,6.283c0,2.863,1.03,5.665,4.47,5.665
			c0.824,0,1.73-0.186,2.76-0.495V305.409z"/>
		<path fill="#040000" d="M803.426,296.14c1.771-0.083,2.945-0.33,4.1-0.742v11.371c0,1.01,0.288,1.257,1.276,1.257h0.804v0.927
			h-6.18v-0.927h0.865c0.988,0,1.339-0.31,1.339-1.545v-8.055c0-0.886-0.309-1.298-1.216-1.298h-0.988V296.14z"/>
		<path fill="#040000" d="M812.82,296.14c1.771-0.083,2.945-0.33,4.1-0.742v11.371c0,1.01,0.288,1.257,1.276,1.257H819v0.927h-6.18
			v-0.927h0.865c0.988,0,1.339-0.31,1.339-1.545v-8.055c0-0.886-0.309-1.298-1.216-1.298h-0.988V296.14z"/>
	</g>
</g>
<g>
	<g>
		<path fill="#040000" d="M1001.925,305.409c0-1.051-0.371-1.277-1.318-1.277h-1.298v-0.927h6.468v0.927h-1.07
			c-0.722,0-1.051,0.268-1.051,1.318v3.049c-1.545,0.515-3.049,0.782-4.759,0.782c-3.275,0-6.18-1.545-6.18-6.447
			c0-5.438,2.781-7.643,7.065-7.643c1.174,0,2.472,0.186,3.873,0.495v3.625h-1.442l-0.123-1.668
			c-0.062-0.701-0.475-1.381-2.452-1.381c-3.09,0-4.943,1.771-4.943,6.283c0,2.863,1.03,5.665,4.47,5.665
			c0.824,0,1.73-0.186,2.761-0.495V305.409z"/>
		<path fill="#040000" d="M1006.746,296.14c1.771-0.083,2.945-0.33,4.1-0.742v11.371c0,1.01,0.288,1.257,1.276,1.257h0.804v0.927
			h-6.18v-0.927h0.865c0.988,0,1.339-0.31,1.339-1.545v-8.055c0-0.886-0.309-1.298-1.216-1.298h-0.988V296.14z"/>
		<path fill="#040000" d="M1014.739,307.387c6.406-6.057,6.818-7.086,6.818-8.837c0-1.524-0.928-2.287-2.328-2.287
			c-1.504,0-2.39,0.969-2.431,3.193h-1.812c0.041-2.308,0.721-4.265,4.325-4.265c2.863,0,4.141,1.381,4.141,3.399
			c0,1.854-0.639,2.986-6.715,8.714h4.717c0.824,0,0.989-0.31,1.051-1.236h1.071v2.884h-8.837V307.387z"/>
	</g>
</g>
<g>
	<g>
		<path fill="#040000" d="M101.797,265.698c0-1.051-0.371-1.277-1.318-1.277h-1.298v-0.927h6.468v0.927h-1.071
			c-0.721,0-1.051,0.268-1.051,1.318v3.049c-1.545,0.515-3.049,0.782-4.758,0.782c-3.275,0-6.18-1.545-6.18-6.447
			c0-5.438,2.781-7.643,7.066-7.643c1.174,0,2.472,0.186,3.873,0.495v3.625h-1.442l-0.124-1.668
			c-0.062-0.701-0.474-1.381-2.452-1.381c-3.09,0-4.944,1.771-4.944,6.283c0,2.863,1.03,5.665,4.47,5.665
			c0.824,0,1.73-0.186,2.76-0.495V265.698z"/>
		<path fill="#040000" d="M106.617,256.429c1.772-0.083,2.946-0.33,4.1-0.742v11.371c0,1.01,0.288,1.257,1.277,1.257h0.804v0.927
			h-6.18v-0.927h0.865c0.989,0,1.339-0.31,1.339-1.545v-8.055c0-0.886-0.309-1.298-1.215-1.298h-0.989V256.429z"/>
		<path fill="#040000" d="M117.432,261.846h0.495c2.431,0,3.234-0.865,3.234-2.863c0-1.606-0.927-2.431-2.287-2.431
			c-1.627,0-2.183,1.298-2.204,2.616h-1.812c0.041-2.143,1.462-3.688,4.017-3.688c2.369,0,4.182,1.092,4.182,3.749
			c0,1.628-1.071,2.699-2.616,3.173v0.041c2.039,0.288,3.007,1.38,3.007,3.316c0,2.41-1.689,3.811-4.594,3.811
			c-3.234,0-4.326-1.318-4.388-3.872h1.813c0.062,1.647,0.721,2.802,2.451,2.802c1.916,0,2.822-1.154,2.822-2.761
			c0-2.163-1.36-2.698-3.543-2.698h-0.577V261.846z"/>
	</g>
</g>
<g>
	<g>
		<path fill="#040000" d="M44.945,340.508c0-1.051-0.371-1.277-1.318-1.277h-1.298v-0.927h6.468v0.927h-1.071
			c-0.721,0-1.05,0.268-1.05,1.318v3.049c-1.545,0.515-3.049,0.783-4.758,0.783c-3.275,0-6.18-1.546-6.18-6.448
			c0-5.438,2.781-7.643,7.066-7.643c1.174,0,2.472,0.186,3.873,0.495v3.625h-1.442l-0.124-1.668
			c-0.062-0.701-0.474-1.381-2.452-1.381c-3.09,0-4.944,1.771-4.944,6.283c0,2.863,1.03,5.665,4.47,5.665
			c0.824,0,1.73-0.186,2.76-0.495V340.508z"/>
		<path fill="#040000" d="M49.765,331.238c1.772-0.083,2.946-0.33,4.1-0.742v11.371c0,1.01,0.288,1.257,1.277,1.257h0.804v0.927
			h-6.18v-0.927h0.865c0.989,0,1.339-0.31,1.339-1.545v-8.055c0-0.886-0.309-1.298-1.216-1.298h-0.989V331.238z"/>
		<path fill="#040000" d="M56.852,338.963l6.098-8.343h1.978v8.425h2.843v1.195h-2.843v1.978c0,0.7,0.412,0.906,1.277,0.906h0.824
			v0.927h-5.933v-0.927h0.824c0.865,0,1.277-0.206,1.277-0.906v-1.978h-6.345V338.963z M63.196,332.516h-0.041l-4.738,6.529h4.779
			V332.516z"/>
	</g>
</g>
<g>
	<g>
		<path fill="#040000" d="M44.829,514.629c0-1.051-0.371-1.277-1.318-1.277h-1.298v-0.927h6.468v0.927h-1.071
			c-0.721,0-1.05,0.268-1.05,1.318v3.049c-1.545,0.515-3.049,0.783-4.758,0.783c-3.275,0-6.18-1.546-6.18-6.448
			c0-5.438,2.781-7.643,7.066-7.643c1.174,0,2.472,0.186,3.873,0.495v3.625h-1.442l-0.124-1.668
			c-0.062-0.701-0.474-1.381-2.452-1.381c-3.09,0-4.944,1.771-4.944,6.283c0,2.863,1.03,5.665,4.47,5.665
			c0.824,0,1.73-0.186,2.76-0.495V514.629z"/>
		<path fill="#040000" d="M49.649,505.359c1.772-0.083,2.946-0.33,4.1-0.742v11.371c0,1.01,0.288,1.257,1.277,1.257h0.804v0.927
			h-6.18v-0.927h0.865c0.989,0,1.339-0.31,1.339-1.545v-8.055c0-0.886-0.309-1.298-1.216-1.298h-0.989V505.359z"/>
		<path fill="#040000" d="M58.322,504.741h7.663v1.647h-6.283l-0.124,3.853c1.071-0.783,1.854-0.989,2.946-0.989
			c2.431,0,4.202,1.524,4.202,4.408c0,3.152-1.709,4.842-4.902,4.842c-2.863,0-4.141-1.463-4.161-3.894h1.73
			c0.021,1.483,0.638,2.822,2.534,2.822c1.668,0,2.822-1.01,2.822-3.44c0-2.349-0.947-3.543-2.719-3.543
			c-1.03,0-2.04,0.494-2.596,1.751h-1.359L58.322,504.741z"/>
	</g>
</g>
<g>
	<g>
		<path fill="#040000" d="M44.836,695.668c0-1.051-0.371-1.277-1.318-1.277H42.22v-0.927h6.468v0.927h-1.071
			c-0.721,0-1.05,0.268-1.05,1.318v3.049c-1.545,0.515-3.049,0.783-4.758,0.783c-3.275,0-6.18-1.546-6.18-6.448
			c0-5.438,2.781-7.643,7.066-7.643c1.174,0,2.472,0.186,3.873,0.495v3.625h-1.442l-0.124-1.668
			c-0.062-0.701-0.474-1.381-2.452-1.381c-3.09,0-4.944,1.771-4.944,6.283c0,2.863,1.03,5.665,4.47,5.665
			c0.824,0,1.73-0.186,2.76-0.495V695.668z"/>
		<path fill="#040000" d="M49.657,686.398c1.772-0.083,2.946-0.33,4.1-0.742v11.371c0,1.01,0.288,1.257,1.277,1.257h0.804v0.927
			h-6.18v-0.927h0.865c0.989,0,1.339-0.31,1.339-1.545v-8.055c0-0.886-0.309-1.298-1.216-1.298h-0.989V686.398z"/>
		<path fill="#040000" d="M64.633,688.603c-0.165-1.051-0.494-2.081-2.039-2.081c-2.369,0-2.946,2.163-3.008,5.562
			c0.927-0.886,1.937-1.34,3.255-1.34c2.142,0,3.955,1.277,3.955,4.265c0,2.719-1.648,4.532-4.594,4.532
			c-1.401,0-2.904-0.618-3.605-1.607c-0.741-1.051-0.989-2.184-0.989-4.635c0-4.861,1.195-7.849,5.026-7.849
			c2.493,0,3.605,1.01,3.811,3.152H64.633z M62.285,698.47c1.462,0,2.616-1.03,2.616-3.316c0-2.308-1.154-3.338-2.616-3.338
			s-2.616,1.03-2.616,3.338C59.668,697.439,60.822,698.47,62.285,698.47z"/>
	</g>
</g>
<g>
	<g>
		<path fill="#040000" d="M138.597,752.652c0-1.051-0.371-1.277-1.318-1.277h-1.298v-0.927h6.468v0.927h-1.071
			c-0.721,0-1.051,0.268-1.051,1.318v3.049c-1.545,0.515-3.049,0.783-4.758,0.783c-3.275,0-6.18-1.546-6.18-6.448
			c0-5.438,2.781-7.643,7.066-7.643c1.174,0,2.472,0.186,3.873,0.495v3.625h-1.442l-0.124-1.668
			c-0.062-0.701-0.474-1.381-2.452-1.381c-3.09,0-4.944,1.771-4.944,6.283c0,2.863,1.03,5.665,4.47,5.665
			c0.824,0,1.73-0.186,2.76-0.495V752.652z"/>
		<path fill="#040000" d="M143.417,743.383c1.772-0.083,2.946-0.33,4.1-0.742v11.371c0,1.01,0.288,1.257,1.277,1.257h0.804v0.927
			h-6.18v-0.927h0.865c0.989,0,1.339-0.31,1.339-1.545v-8.055c0-0.886-0.309-1.298-1.215-1.298h-0.989V743.383z"/>
		<path fill="#040000" d="M151.492,742.765h8.94v1.483l-5.006,11.947h-1.895l5.417-11.783h-5.417c-0.803,0-0.948,0.453-0.968,1.339
			h-1.071V742.765z"/>
	</g>
</g>
<g>
	<g>
		<path fill="#040000" d="M138.625,594.515c0-1.051-0.371-1.277-1.318-1.277h-1.298v-0.927h6.468v0.927h-1.071
			c-0.721,0-1.05,0.268-1.05,1.318v3.049c-1.545,0.515-3.049,0.782-4.758,0.782c-3.275,0-6.18-1.545-6.18-6.447
			c0-5.438,2.781-7.643,7.066-7.643c1.174,0,2.472,0.186,3.873,0.495v3.625h-1.442l-0.124-1.668
			c-0.062-0.701-0.474-1.381-2.452-1.381c-3.09,0-4.944,1.771-4.944,6.283c0,2.863,1.03,5.665,4.47,5.665
			c0.824,0,1.73-0.186,2.76-0.495V594.515z"/>
		<path fill="#040000" d="M143.446,585.245c1.772-0.083,2.946-0.33,4.1-0.742v11.371c0,1.01,0.288,1.257,1.277,1.257h0.804v0.927
			h-6.18v-0.927h0.865c0.989,0,1.339-0.31,1.339-1.545v-8.055c0-0.886-0.309-1.298-1.216-1.298h-0.989V585.245z"/>
		<path fill="#040000" d="M160.296,587.882c0,1.4-0.638,2.616-2.348,3.233v0.042c2.06,0.617,2.74,2.019,2.74,3.522
			c0,2.431-1.937,3.707-4.697,3.707s-4.697-1.276-4.697-3.707c0-1.504,0.68-2.905,2.74-3.522v-0.042
			c-1.709-0.617-2.348-1.833-2.348-3.233c0-2.637,2.163-3.585,4.305-3.585C158.134,584.297,160.296,585.245,160.296,587.882z
			 M155.991,597.398c1.586,0,2.802-0.886,2.802-2.904c0-1.957-1.215-2.863-2.802-2.863c-1.565,0-2.801,0.906-2.801,2.863
			C153.19,596.513,154.426,597.398,155.991,597.398z M155.991,585.286c-1.545,0-2.493,0.968-2.493,2.678s0.948,2.678,2.493,2.678
			s2.493-0.968,2.493-2.678S157.536,585.286,155.991,585.286z"/>
	</g>
</g>
<rect x="843.266" y="639.743" fill="none" stroke="#040000" width="189.191" height="45.735"/>
<g>
	<g>
		<path fill="#040000" d="M323.27,394.601h6.51c3.007,0,4.8,1.194,4.8,3.275c0,1.771-1.34,2.986-3.132,3.233v0.042
			c2.308,0.35,3.461,1.524,3.461,3.316c0,2.019-1.483,3.563-5.067,3.563h-6.571v-0.927h1.195c0.886,0,1.339-0.124,1.339-1.483v-8.61
			c0-1.359-0.453-1.483-1.339-1.483h-1.195V394.601z M327.617,400.739h1.71c1.957,0,3.357-0.804,3.357-2.678
			c0-1.607-0.927-2.39-3.894-2.39h-1.174V400.739z M327.617,406.96h2.596c1.359,0,2.801-0.865,2.801-2.533
			c0-1.71-1.112-2.699-3.625-2.699h-1.771V406.96z"/>
		<path fill="#040000" d="M337.443,406.466c6.406-6.057,6.818-7.086,6.818-8.837c0-1.524-0.927-2.287-2.327-2.287
			c-1.504,0-2.39,0.969-2.432,3.193h-1.812c0.041-2.308,0.721-4.265,4.326-4.265c2.863,0,4.141,1.381,4.141,3.399
			c0,1.854-0.639,2.986-6.716,8.713h4.718c0.823,0,0.988-0.309,1.05-1.235h1.071v2.884h-8.837V406.466z"/>
	</g>
</g>
<g>
	<g>
		<path fill="#040000" d="M1223.015,294.193h6.51c3.007,0,4.8,1.194,4.8,3.275c0,1.771-1.339,2.986-3.132,3.234v0.041
			c2.308,0.35,3.461,1.524,3.461,3.316c0,2.019-1.483,3.563-5.067,3.563h-6.571v-0.927h1.195c0.886,0,1.339-0.124,1.339-1.483v-8.61
			c0-1.359-0.453-1.483-1.339-1.483h-1.195V294.193z M1227.362,300.332h1.71c1.957,0,3.357-0.804,3.357-2.678
			c0-1.607-0.927-2.39-3.894-2.39h-1.174V300.332z M1227.362,306.553h2.596c1.359,0,2.801-0.865,2.801-2.533
			c0-1.71-1.112-2.699-3.625-2.699h-1.771V306.553z"/>
		<path fill="#040000" d="M1238.588,294.812c1.772-0.083,2.946-0.33,4.1-0.742v11.371c0,1.01,0.288,1.257,1.277,1.257h0.804v0.927
			h-6.181v-0.927h0.865c0.989,0,1.34-0.31,1.34-1.545v-8.055c0-0.886-0.31-1.298-1.216-1.298h-0.989V294.812z"/>
	</g>
</g>
<g>
	<g>
		<path fill="#040000" d="M162.087,306.272c0-1.359-0.453-1.483-1.339-1.483h-1.195v-0.988h6.921c2.225,0,4.058,1.03,4.058,3.708
			c0,2.472-1.607,3.955-5.335,3.955h-1.298v3.357c0,1.359,0.453,1.483,1.339,1.483h1.401v0.927h-7.086v-0.927h1.195
			c0.886,0,1.339-0.124,1.339-1.483V306.272z M163.899,310.393h1.071c2.781,0,3.667-1.133,3.667-2.863
			c0-1.957-1.071-2.657-3.213-2.657h-1.524V310.393z"/>
		<path fill="#040000" d="M174.797,304.419c1.772-0.083,2.946-0.33,4.1-0.742v11.371c0,1.01,0.288,1.257,1.277,1.257h0.804v0.927
			h-6.18v-0.927h0.865c0.989,0,1.339-0.31,1.339-1.545v-8.055c0-0.886-0.309-1.298-1.215-1.298h-0.989V304.419z"/>
	</g>
</g>
<g>
	<path fill="#040000" d="M647.743,457.325c0-1.359-0.453-1.483-1.339-1.483h-1.195v-0.988h6.921c2.225,0,4.058,1.03,4.058,3.708
		c0,2.472-1.607,3.955-5.335,3.955h-1.298v3.357c0,1.359,0.453,1.483,1.339,1.483h1.4v0.927h-7.086v-0.927h1.195
		c0.886,0,1.339-0.124,1.339-1.483V457.325z M649.555,461.445h1.071c2.781,0,3.667-1.133,3.667-2.863
		c0-1.957-1.071-2.657-3.213-2.657h-1.524V461.445z"/>
	<path fill="#040000" d="M658.146,463.196l6.098-8.343h1.978v8.425h2.843v1.195h-2.843v1.978c0,0.7,0.412,0.906,1.277,0.906h0.824
		v0.927h-5.933v-0.927h0.824c0.865,0,1.277-0.206,1.277-0.906v-1.978h-6.345V463.196z M664.49,456.748h-0.041l-4.738,6.53h4.779
		V456.748z"/>
</g>
<g>
	<path fill="#040000" d="M577.665,397.072c0-1.359-0.453-1.483-1.339-1.483h-1.195v-0.988h6.922c2.225,0,4.058,1.03,4.058,3.708
		c0,2.472-1.606,3.955-5.335,3.955h-1.298v3.357c0,1.359,0.453,1.483,1.339,1.483h1.4v0.927h-7.086v-0.927h1.195
		c0.886,0,1.339-0.124,1.339-1.483V397.072z M579.477,401.192h1.071c2.78,0,3.666-1.133,3.666-2.863c0-1.957-1.07-2.657-3.213-2.657
		h-1.524V401.192z"/>
	<path fill="#040000" d="M591.795,400.636h0.495c2.431,0,3.233-0.865,3.233-2.863c0-1.606-0.927-2.431-2.286-2.431
		c-1.627,0-2.184,1.298-2.204,2.616h-1.812c0.041-2.143,1.462-3.688,4.017-3.688c2.369,0,4.182,1.092,4.182,3.749
		c0,1.628-1.071,2.699-2.616,3.173v0.041c2.039,0.288,3.008,1.38,3.008,3.316c0,2.41-1.689,3.812-4.594,3.812
		c-3.234,0-4.326-1.318-4.388-3.873h1.812c0.062,1.647,0.721,2.802,2.451,2.802c1.916,0,2.822-1.154,2.822-2.761
		c0-2.163-1.359-2.698-3.543-2.698h-0.577V400.636z"/>
</g>
<g>
	<path fill="#040000" d="M647.743,652.473c0-1.359-0.453-1.483-1.339-1.483h-1.195v-0.988h6.921c2.225,0,4.058,1.03,4.058,3.708
		c0,2.472-1.607,3.955-5.335,3.955h-1.298v3.357c0,1.359,0.453,1.483,1.339,1.483h1.4v0.927h-7.086v-0.927h1.195
		c0.886,0,1.339-0.124,1.339-1.483V652.473z M649.555,656.593h1.071c2.781,0,3.667-1.133,3.667-2.863
		c0-1.957-1.071-2.657-3.213-2.657h-1.524V656.593z"/>
	<path fill="#040000" d="M659.732,650.001h7.663v1.647h-6.283l-0.124,3.853c1.071-0.783,1.854-0.989,2.946-0.989
		c2.431,0,4.202,1.524,4.202,4.408c0,3.152-1.709,4.842-4.902,4.842c-2.863,0-4.141-1.463-4.161-3.894h1.73
		c0.021,1.483,0.638,2.822,2.534,2.822c1.668,0,2.822-1.01,2.822-3.44c0-2.349-0.947-3.543-2.719-3.543
		c-1.03,0-2.04,0.494-2.596,1.751h-1.359L659.732,650.001z"/>
</g>
<g>
	<g>
		<path fill="#040000" d="M269.263,511.948h6.509c3.008,0,4.8,1.194,4.8,3.275c0,1.771-1.339,2.986-3.131,3.234v0.041
			c2.307,0.35,3.461,1.524,3.461,3.316c0,2.019-1.483,3.563-5.067,3.563h-6.571v-0.927h1.194c0.886,0,1.339-0.124,1.339-1.483v-8.61
			c0-1.359-0.453-1.483-1.339-1.483h-1.194V511.948z M273.609,518.087h1.71c1.957,0,3.357-0.804,3.357-2.678
			c0-1.607-0.927-2.39-3.893-2.39h-1.175V518.087z M273.609,524.308h2.596c1.359,0,2.802-0.865,2.802-2.533
			c0-1.71-1.112-2.699-3.626-2.699h-1.771V524.308z"/>
		<path fill="#040000" d="M286.257,517.983h0.495c2.431,0,3.233-0.865,3.233-2.863c0-1.606-0.927-2.431-2.286-2.431
			c-1.627,0-2.184,1.298-2.204,2.616h-1.812c0.041-2.143,1.462-3.688,4.017-3.688c2.369,0,4.182,1.092,4.182,3.749
			c0,1.628-1.071,2.699-2.616,3.173v0.041c2.039,0.288,3.008,1.38,3.008,3.316c0,2.41-1.689,3.811-4.594,3.811
			c-3.234,0-4.326-1.318-4.388-3.872h1.812c0.062,1.647,0.721,2.802,2.451,2.802c1.916,0,2.822-1.154,2.822-2.761
			c0-2.163-1.359-2.698-3.543-2.698h-0.577V517.983z"/>
	</g>
</g>
<g>
	<g>
		<path fill="#040000" d="M449.255,394.601h6.509c3.007,0,4.8,1.194,4.8,3.275c0,1.771-1.339,2.986-3.131,3.233v0.042
			c2.307,0.35,3.461,1.524,3.461,3.316c0,2.019-1.483,3.563-5.067,3.563h-6.571v-0.927h1.195c0.886,0,1.339-0.124,1.339-1.483v-8.61
			c0-1.359-0.453-1.483-1.339-1.483h-1.195V394.601z M453.601,400.739h1.71c1.957,0,3.357-0.804,3.357-2.678
			c0-1.607-0.927-2.39-3.893-2.39h-1.174V400.739z M453.601,406.96h2.596c1.359,0,2.801-0.865,2.801-2.533
			c0-1.71-1.112-2.699-3.625-2.699h-1.771V406.96z"/>
		<path fill="#040000" d="M464.107,394.601h7.663v1.647h-6.283l-0.124,3.853c1.071-0.783,1.854-0.989,2.946-0.989
			c2.431,0,4.202,1.524,4.202,4.408c0,3.152-1.709,4.842-4.902,4.842c-2.863,0-4.141-1.463-4.161-3.894h1.73
			c0.021,1.483,0.638,2.822,2.534,2.822c1.668,0,2.822-1.01,2.822-3.44c0-2.349-0.947-3.543-2.719-3.543
			c-1.03,0-2.04,0.494-2.596,1.751h-1.359L464.107,394.601z"/>
	</g>
</g>
<g>
	<g>
		<path fill="#040000" d="M452.339,357.134c0-1.359-0.453-1.483-1.339-1.483h-1.195v-0.988h6.921c2.225,0,4.058,1.03,4.058,3.708
			c0,2.472-1.607,3.955-5.335,3.955h-1.298v3.357c0,1.359,0.453,1.483,1.339,1.483h1.401v0.927h-7.086v-0.927H451
			c0.886,0,1.339-0.124,1.339-1.483V357.134z M454.152,361.254h1.071c2.781,0,3.667-1.133,3.667-2.863
			c0-1.957-1.071-2.657-3.213-2.657h-1.524V361.254z"/>
		<path fill="#040000" d="M462.825,366.527c6.406-6.057,6.818-7.086,6.818-8.837c0-1.524-0.927-2.287-2.328-2.287
			c-1.504,0-2.39,0.969-2.431,3.193h-1.812c0.041-2.308,0.721-4.265,4.326-4.265c2.863,0,4.141,1.381,4.141,3.399
			c0,1.854-0.639,2.986-6.715,8.713h4.717c0.824,0,0.989-0.309,1.05-1.235h1.071v2.884h-8.837V366.527z"/>
	</g>
</g>
<g>
	<g>
		<path fill="#040000" d="M424.896,499.72h6.509c3.007,0,4.8,1.194,4.8,3.275c0,1.771-1.339,2.986-3.131,3.233v0.042
			c2.307,0.35,3.461,1.524,3.461,3.316c0,2.019-1.483,3.563-5.067,3.563h-6.571v-0.927h1.195c0.886,0,1.339-0.124,1.339-1.483v-8.61
			c0-1.359-0.453-1.483-1.339-1.483h-1.195V499.72z M429.242,505.858h1.71c1.957,0,3.357-0.804,3.357-2.678
			c0-1.607-0.927-2.39-3.893-2.39h-1.174V505.858z M429.242,512.079h2.596c1.359,0,2.801-0.865,2.801-2.533
			c0-1.71-1.112-2.699-3.625-2.699h-1.771V512.079z"/>
		<path fill="#040000" d="M446.051,502.542c-0.165-1.051-0.494-2.081-2.039-2.081c-2.369,0-2.946,2.163-3.008,5.562
			c0.927-0.886,1.937-1.34,3.255-1.34c2.142,0,3.955,1.277,3.955,4.265c0,2.719-1.648,4.532-4.594,4.532
			c-1.401,0-2.904-0.618-3.605-1.607c-0.741-1.051-0.989-2.184-0.989-4.635c0-4.861,1.195-7.849,5.026-7.849
			c2.493,0,3.605,1.01,3.811,3.152H446.051z M443.703,512.409c1.462,0,2.616-1.03,2.616-3.316c0-2.308-1.154-3.338-2.616-3.338
			s-2.616,1.03-2.616,3.338C441.087,511.379,442.241,512.409,443.703,512.409z"/>
	</g>
</g>
<g>
	<g>
		<path fill="#040000" d="M424.896,560.755h6.509c3.007,0,4.8,1.194,4.8,3.275c0,1.771-1.339,2.986-3.131,3.233v0.042
			c2.307,0.35,3.461,1.524,3.461,3.316c0,2.019-1.483,3.563-5.067,3.563h-6.571v-0.927h1.195c0.886,0,1.339-0.124,1.339-1.483v-8.61
			c0-1.359-0.453-1.483-1.339-1.483h-1.195V560.755z M429.242,566.894h1.71c1.957,0,3.357-0.804,3.357-2.678
			c0-1.607-0.927-2.39-3.893-2.39h-1.174V566.894z M429.242,573.114h2.596c1.359,0,2.801-0.865,2.801-2.533
			c0-1.71-1.112-2.699-3.625-2.699h-1.771V573.114z"/>
		<path fill="#040000" d="M439.15,560.755h8.94v1.483l-5.006,11.947h-1.895l5.417-11.783h-5.417c-0.803,0-0.948,0.453-0.968,1.339
			h-1.071V560.755z"/>
	</g>
</g>
<g>
	<g>
		<path fill="#040000" d="M500.316,528.964h6.509c3.007,0,4.8,1.194,4.8,3.275c0,1.771-1.339,2.986-3.131,3.233v0.042
			c2.307,0.35,3.461,1.524,3.461,3.316c0,2.019-1.483,3.563-5.067,3.563h-6.571v-0.927h1.195c0.886,0,1.339-0.124,1.339-1.483v-8.61
			c0-1.359-0.453-1.483-1.339-1.483h-1.195V528.964z M504.662,535.103h1.71c1.957,0,3.357-0.804,3.357-2.678
			c0-1.607-0.927-2.39-3.893-2.39h-1.174V535.103z M504.662,541.323h2.596c1.359,0,2.801-0.865,2.801-2.533
			c0-1.71-1.112-2.699-3.625-2.699h-1.771V541.323z"/>
		<path fill="#040000" d="M523.346,532.219c0,1.4-0.639,2.616-2.348,3.233v0.042c2.06,0.617,2.74,2.019,2.74,3.522
			c0,2.431-1.937,3.708-4.697,3.708s-4.697-1.277-4.697-3.708c0-1.504,0.68-2.905,2.74-3.522v-0.042
			c-1.709-0.617-2.348-1.833-2.348-3.233c0-2.637,2.163-3.585,4.305-3.585C521.184,528.634,523.346,529.582,523.346,532.219z
			 M519.041,541.735c1.586,0,2.802-0.886,2.802-2.904c0-1.957-1.215-2.863-2.802-2.863c-1.565,0-2.801,0.906-2.801,2.863
			C516.24,540.85,517.476,541.735,519.041,541.735z M519.041,529.623c-1.545,0-2.493,0.968-2.493,2.678s0.948,2.678,2.493,2.678
			s2.493-0.968,2.493-2.678S520.586,529.623,519.041,529.623z"/>
	</g>
</g>
<g>
	<g>
		<path fill="#040000" d="M1368.671,251.141h6.509c3.008,0,4.8,1.194,4.8,3.275c0,1.771-1.339,2.986-3.131,3.234v0.041
			c2.307,0.35,3.461,1.524,3.461,3.316c0,2.019-1.483,3.563-5.067,3.563h-6.571v-0.927h1.194c0.886,0,1.339-0.124,1.339-1.483v-8.61
			c0-1.359-0.453-1.483-1.339-1.483h-1.194V251.141z M1373.017,257.279h1.71c1.957,0,3.357-0.804,3.357-2.678
			c0-1.607-0.927-2.39-3.893-2.39h-1.175V257.279z M1373.017,263.5h2.596c1.359,0,2.802-0.865,2.802-2.533
			c0-1.71-1.112-2.699-3.626-2.699h-1.771V263.5z"/>
		<path fill="#040000" d="M1384.965,261.749c0.165,1.051,0.495,2.081,2.04,2.081c2.368,0,2.945-2.163,3.007-5.562
			c-0.927,0.886-1.937,1.339-3.255,1.339c-2.142,0-3.955-1.276-3.955-4.264c0-2.719,1.648-4.532,4.594-4.532
			c1.401,0,2.905,0.618,3.605,1.607c0.741,1.05,0.988,2.184,0.988,4.635c0,4.861-1.194,7.848-5.026,7.848
			c-2.492,0-3.604-1.009-3.811-3.151H1384.965z M1387.314,258.536c1.463,0,2.616-1.03,2.616-3.338c0-2.286-1.153-3.316-2.616-3.316
			s-2.616,1.03-2.616,3.316C1384.698,257.506,1385.851,258.536,1387.314,258.536z"/>
	</g>
</g>
<g>
	<g>
		<path fill="#040000" d="M1414.383,251.141h6.509c3.008,0,4.8,1.194,4.8,3.275c0,1.771-1.339,2.986-3.131,3.234v0.041
			c2.307,0.35,3.461,1.524,3.461,3.316c0,2.019-1.483,3.563-5.067,3.563h-6.571v-0.927h1.194c0.886,0,1.339-0.124,1.339-1.483v-8.61
			c0-1.359-0.453-1.483-1.339-1.483h-1.194V251.141z M1418.729,257.279h1.71c1.957,0,3.357-0.804,3.357-2.678
			c0-1.607-0.927-2.39-3.893-2.39h-1.175V257.279z M1418.729,263.5h2.596c1.359,0,2.802-0.865,2.802-2.533
			c0-1.71-1.112-2.699-3.626-2.699h-1.771V263.5z"/>
		<path fill="#040000" d="M1429.957,251.759c1.771-0.083,2.945-0.33,4.1-0.742v11.371c0,1.01,0.288,1.257,1.276,1.257h0.804v0.927
			h-6.18v-0.927h0.865c0.988,0,1.339-0.31,1.339-1.545v-8.055c0-0.886-0.309-1.298-1.216-1.298h-0.988V251.759z"/>
		<path fill="#040000" d="M1444.562,250.811c3.151,0,4.861,2.287,4.861,7.045c0,4.759-1.71,7.045-4.861,7.045
			c-3.152,0-4.861-2.286-4.861-7.045C1439.701,253.098,1441.41,250.811,1444.562,250.811z M1444.562,263.83
			c1.874,0,2.884-1.277,2.884-5.975c0-4.696-1.01-5.974-2.884-5.974c-1.875,0-2.884,1.277-2.884,5.974
			C1441.678,262.553,1442.687,263.83,1444.562,263.83z"/>
	</g>
</g>
<g>
	<g>
		<path fill="#040000" d="M269.263,555.403h6.509c3.008,0,4.8,1.194,4.8,3.275c0,1.771-1.339,2.986-3.131,3.234v0.041
			c2.307,0.35,3.461,1.524,3.461,3.316c0,2.019-1.483,3.563-5.067,3.563h-6.571v-0.927h1.194c0.886,0,1.339-0.124,1.339-1.483v-8.61
			c0-1.359-0.453-1.483-1.339-1.483h-1.194V555.403z M273.609,561.542h1.71c1.957,0,3.357-0.804,3.357-2.678
			c0-1.607-0.927-2.39-3.893-2.39h-1.175V561.542z M273.609,567.763h2.596c1.359,0,2.802-0.865,2.802-2.533
			c0-1.71-1.112-2.699-3.626-2.699h-1.771V567.763z"/>
		<path fill="#040000" d="M282.529,563.746l6.098-8.343h1.978v8.425h2.843v1.195h-2.843v1.978c0,0.7,0.412,0.906,1.277,0.906h0.824
			v0.927h-5.933v-0.927h0.824c0.864,0,1.276-0.206,1.276-0.906v-1.978h-6.345V563.746z M288.874,557.298h-0.041l-4.737,6.53h4.778
			V557.298z"/>
	</g>
</g>
<polyline fill="none" stroke="#040000" stroke-width="3" points="696.441,962.983 775.61,962.983 775.61,920.472 938.346,920.472 
	"/>
<line fill="none" stroke="#040000" stroke-width="2" x1="775.61" y1="933.465" x2="938.346" y2="933.465"/>
<line fill="none" stroke="#040000" stroke-width="2" x1="938.346" y1="946.459" x2="775.61" y2="946.459"/>
<polygon fill="none" stroke="#040000" stroke-width="3" points="938.346,792.315 1154.545,792.315 1154.545,813.444 
	1154.545,1067.138 938.346,1067.138 "/>
<polygon fill="none" stroke="#040000" stroke-width="3" points="1235.68,792.315 1562.743,792.315 1562.743,813.444 
	1562.743,1067.138 1235.68,1067.138 "/>
<line fill="none" stroke="#040000" stroke-width="3" x1="1154.545" y1="792.315" x2="1235.68" y2="792.315"/>
<line fill="none" stroke="#040000" stroke-width="2" x1="1154.545" y1="805.235" x2="1235.68" y2="805.235"/>
<line fill="none" stroke="#040000" stroke-width="2" x1="1154.545" y1="818.154" x2="1235.68" y2="818.154"/>
<line fill="none" stroke="#040000" stroke-width="2" x1="1154.545" y1="831.075" x2="1235.68" y2="831.075"/>
<line fill="none" stroke="#040000" stroke-width="2" x1="251.003" y1="117.741" x2="189.315" y2="117.741"/>
<line fill="none" stroke="#040000" stroke-width="2" x1="251.003" y1="130.971" x2="189.315" y2="130.971"/>
<line fill="none" stroke="#040000" stroke-width="2" x1="251.003" y1="144.199" x2="189.315" y2="144.199"/>
<line fill="none" stroke="#040000" stroke-width="2" x1="251.003" y1="157.429" x2="189.315" y2="157.429"/>
<line fill="none" stroke="#040000" stroke-width="2" x1="251.003" y1="170.658" x2="189.315" y2="170.658"/>
<line fill="none" stroke="#040000" stroke-width="2" x1="251.003" y1="183.887" x2="189.315" y2="183.887"/>
<line fill="none" stroke="#040000" stroke-width="2" x1="716.978" y1="185.907" x2="716.978" y2="256.722"/>
<line fill="none" stroke="#040000" stroke-width="2" x1="730.033" y1="185.907" x2="730.033" y2="256.722"/>
<line fill="none" stroke="#040000" stroke-width="2" x1="743.089" y1="185.907" x2="743.089" y2="256.722"/>
<line fill="none" stroke="#040000" stroke-width="2" x1="756.145" y1="185.907" x2="756.145" y2="256.722"/>
<line fill="none" stroke="#040000" stroke-width="2" x1="769.2" y1="185.907" x2="769.2" y2="256.722"/>
<polyline fill="none" stroke="#040000" stroke-width="3" points="699.048,77.002 699.048,185.424 782.256,185.424 782.256,256.58 
	782.256,256.675 699.024,256.675 699.024,331.559 "/>
<line fill="none" stroke="#040000" stroke-width="2" x1="1148.641" y1="339.516" x2="1207.941" y2="339.516"/>
<line fill="none" stroke="#040000" stroke-width="2" x1="1148.641" y1="352.096" x2="1207.941" y2="352.096"/>
<line fill="none" stroke="#040000" stroke-width="2" x1="1148.641" y1="365.188" x2="1207.941" y2="365.188"/>
<polyline fill="none" stroke="#040000" stroke-width="2" points="244.381,718.328 261.637,718.328 261.637,786.594 185.96,786.594 
	"/>
<polyline fill="none" stroke="#040000" stroke-width="2" points="185.655,776.334 274.6,776.334 274.6,705.973 244.017,705.973 "/>
<line fill="none" stroke="#040000" stroke-width="2" x1="244.381" y1="718.328" x2="185.96" y2="718.328"/>
<line fill="none" stroke="#040000" stroke-width="2" x1="244.381" y1="705.412" x2="185.96" y2="705.412"/>
<line fill="none" stroke="#040000" stroke-width="2" x1="244.381" y1="692.496" x2="185.96" y2="692.496"/>
<line fill="none" stroke="#040000" stroke-width="2" x1="244.381" y1="679.58" x2="185.96" y2="679.58"/>
<line fill="none" stroke="#040000" stroke-width="2" x1="244.381" y1="666.663" x2="185.96" y2="666.663"/>
<line fill="none" stroke="#040000" stroke-width="2" x1="244.381" y1="653.747" x2="185.96" y2="653.747"/>
<line fill="none" stroke="#040000" stroke-width="2" x1="244.381" y1="640.831" x2="185.96" y2="640.831"/>
<line fill="none" stroke="#040000" stroke-width="2" x1="244.381" y1="627.915" x2="185.96" y2="627.915"/>
<line fill="none" stroke="#040000" stroke-width="2" x1="244.381" y1="614.999" x2="185.96" y2="614.999"/>
<line fill="none" stroke="#040000" stroke-width="2" x1="244.381" y1="602.083" x2="185.96" y2="602.083"/>
<line fill="none" stroke="#040000" stroke-width="2" x1="244.381" y1="589.168" x2="185.96" y2="589.168"/>
<line fill="none" stroke="#040000" stroke-width="2" x1="244.381" y1="576.251" x2="185.96" y2="576.251"/>
<line fill="none" stroke="#040000" stroke-width="2" x1="244.381" y1="563.334" x2="185.96" y2="563.334"/>
<line fill="none" stroke="#040000" stroke-width="2" x1="244.381" y1="550.418" x2="185.96" y2="550.418"/>
<line fill="none" stroke="#040000" stroke-width="2" x1="244.381" y1="537.502" x2="185.96" y2="537.502"/>
<circle fill="none" stroke="#040000" stroke-width="3" cx="421.491" cy="103.1" r="12.263"/>
<circle fill="none" stroke="#040000" stroke-width="3" cx="665.374" cy="122.656" r="12.262"/>
<circle fill="none" stroke="#040000" stroke-width="3" cx="950.99" cy="152.056" r="12.262"/>
<circle fill="none" stroke="#040000" stroke-width="3" cx="1236.825" cy="172.716" r="12.263"/>
<circle fill="none" stroke="#040000" stroke-width="3" cx="167.066" cy="940.372" r="12.263"/>
<circle fill="none" stroke="#040000" stroke-width="3" cx="499.101" cy="940.372" r="12.262"/>
<line fill="none" stroke="#040000" stroke-width="3" x1="11.309" y1="962.983" x2="696.441" y2="962.983"/>
<line fill="none" stroke="#040000" stroke-width="3" x1="691.851" y1="620.438" x2="1139.677" y2="620.438"/>
<line fill="none" stroke="#040000" stroke-width="3" x1="1195.112" y1="620.438" x2="1234.004" y2="620.438"/>
<line fill="none" stroke="#040000" stroke-width="3" x1="1110.758" y1="620.434" x2="1110.758" y2="331.559"/>
<line fill="none" stroke="#040000" stroke-width="3" x1="691.851" y1="620.438" x2="691.851" y2="331.559"/>
<line fill="none" stroke="#040000" stroke-width="3" x1="691.851" y1="816.492" x2="691.851" y2="620.401"/>
<polyline fill="none" stroke="#040000" stroke-width="3" points="1270.905,315.365 1270.905,365.188 1235.68,365.188 
	1235.68,331.909 "/>
<line fill="none" stroke="#040000" stroke-width="3" x1="691.851" y1="962.983" x2="691.851" y2="920.472"/>
<rect x="984.78" y="331.559" fill="none" stroke="#040000" width="125.979" height="142.146"/>
<line fill="none" stroke="#040000" x1="984.78" y1="343.115" x2="1110.634" y2="343.115"/>
<line fill="none" stroke="#040000" x1="984.78" y1="369.227" x2="1110.634" y2="369.227"/>
<line fill="none" stroke="#040000" x1="984.78" y1="395.159" x2="1110.634" y2="395.159"/>
<line fill="none" stroke="#040000" x1="984.78" y1="421.181" x2="1110.634" y2="421.181"/>
<line fill="none" stroke="#040000" x1="984.78" y1="446.992" x2="1110.634" y2="446.992"/>
<line fill="none" stroke="#040000" x1="1011.856" y1="331.559" x2="1011.856" y2="473.704"/>
<line fill="none" stroke="#040000" x1="1038.836" y1="331.559" x2="1038.836" y2="473.704"/>
<line fill="none" stroke="#040000" x1="1065.81" y1="331.559" x2="1065.81" y2="473.704"/>
<line fill="none" stroke="#040000" x1="1092.784" y1="331.559" x2="1092.784" y2="473.704"/>
<rect x="957.426" y="386.3" fill="none" stroke="#040000" width="7.311" height="92.462"/>
<polyline fill="none" stroke="#040000" stroke-width="3" points="251.151,88.891 251.151,331.742 1148.641,331.742 
	1148.641,378.687 1207.879,378.687 1207.879,331.584 1270.905,331.584 "/>
<polyline fill="none" stroke="#040000" stroke-width="2" points="189.315,104.517 251.003,104.517 251.151,104.517 "/>
<line fill="none" stroke="#040000" stroke-width="3" x1="1270.905" y1="331.584" x2="1270.905" y2="126.895"/>
<polyline fill="none" stroke="#040000" stroke-width="3" points="1270.905,126.895 189.466,32.566 189.466,229.826 11.309,229.826 
	11.309,962.983 "/>
<line fill="none" stroke="#040000" stroke-width="3" x1="11.309" y1="786.642" x2="185.655" y2="786.642"/>
<line fill="none" stroke="#040000" stroke-width="3" x1="185.655" y1="786.594" x2="185.655" y2="522.901"/>
<polyline fill="none" stroke="#040000" stroke-width="3" points="244.381,718.328 244.381,408.715 261.902,408.715 261.902,331.909 
	"/>
<path fill="none" stroke="#040000" stroke-width="3" d="M1270.905,167.872h12.567c111.874,0,240.999,43.308,308.763,81.608
	l-29.492,82.078v314.176h-328.738v-59.212h36.9V421.181h106.418v-89.622h185.42"/>
<g>
	<polyline fill="none" stroke="#040000" stroke-width="3" points="1167.241,331.654 1177.856,315.517 1188.471,331.654 	"/>
	<line fill="none" stroke="#040000" stroke-width="3" x1="1177.856" y1="315.517" x2="1177.856" y2="395.159"/>
</g>
<g>
	<polyline fill="none" stroke="#040000" stroke-width="3" points="697.523,231.93 681.385,221.314 697.523,210.7 	"/>
	<line fill="none" stroke="#040000" stroke-width="3" x1="681.385" y1="221.314" x2="799.911" y2="221.314"/>
</g>
<g>
	<polyline fill="none" stroke="#040000" stroke-width="3" points="230.848,204.096 220.233,220.233 209.619,204.096 	"/>
	<line fill="none" stroke="#040000" stroke-width="3" x1="220.233" y1="220.233" x2="220.233" y2="77.002"/>
</g>
<g>
	<polyline fill="none" stroke="#040000" stroke-width="3" points="225.785,733.342 215.17,749.479 204.556,733.342 	"/>
	<line fill="none" stroke="#040000" stroke-width="3" x1="215.17" y1="749.479" x2="215.17" y2="514.34"/>
</g>
<line fill="none" stroke="#040000" stroke-width="3" x1="691.851" y1="962.983" x2="691.851" y2="1067.138"/>
<line fill="none" stroke="#040000" stroke-width="3" x1="1256.89" y1="645.734" x2="1256.89" y2="792.315"/>
<rect x="713.982" y="639.743" fill="none" stroke="#040000" width="105.202" height="105.201"/>
<rect fill="none" width="1600" height="1100"/>
</svg>
