<?xml version="1.0" encoding="iso-8859-1"?>
<!-- Generator: Adobe Illustrator 18.0.0, SVG Export Plug-In . SVG Version: 6.00 Build 0)  -->
<!DOCTYPE svg PUBLIC "-//W3C//DTD SVG 1.1//EN" "http://www.w3.org/Graphics/SVG/1.1/DTD/svg11.dtd">
<svg version="1.1" id="Capa_1" xmlns="http://www.w3.org/2000/svg" xmlns:xlink="http://www.w3.org/1999/xlink" x="0px" y="0px"
	 viewBox="0 0 490.106 490.106" style="enable-background:new 0 0 490.106 490.106;" xml:space="preserve">
<g>
	<path d="M480.91,54.024c-7.67-9.339-18.997-14.701-31.1-14.701H91.821c-19.739,0-36.458,14.136-39.75,33.603l-4.024,24.053h32.748
		l3.144-18.678c0.643-3.864,3.948-6.674,7.883-6.674H449.81c2.407,0,4.636,1.059,6.176,2.922c1.51,1.859,2.122,4.251,1.674,6.592
		l-21.104,108.105c5.89,9.227,9.417,20.123,9.417,31.85v88.449L489.348,87.35C491.673,75.494,488.594,63.33,480.91,54.024z"/>
	<path d="M386.523,193.949H172.771c-2.146,0-3.883-1.736-3.883-3.883v-33.633c0-14.987-12.165-27.152-27.152-27.152H27.153
		C12.164,129.281,0,141.446,0,156.433v267.2c0,14.989,12.164,27.149,27.153,27.149h359.37c15.004,0,27.168-12.16,27.168-27.149
		V221.096C413.691,206.092,401.527,193.949,386.523,193.949z"/>
</g>
<g>
</g>
<g>
</g>
<g>
</g>
<g>
</g>
<g>
</g>
<g>
</g>
<g>
</g>
<g>
</g>
<g>
</g>
<g>
</g>
<g>
</g>
<g>
</g>
<g>
</g>
<g>
</g>
<g>
</g>
</svg>
